<mxfile host="Electron" modified="2024-04-11T13:05:21.001Z" agent="Mozilla/5.0 (Macintosh; Intel Mac OS X 10_15_7) AppleWebKit/537.36 (KHTML, like Gecko) draw.io/24.1.0 Chrome/120.0.6099.109 Electron/28.1.0 Safari/537.36" etag="YG-T719nzMiTKLHJU62E" version="24.1.0" type="device">
  <diagram name="Page-1" id="dkx55BnweH6-1s_xG7w9">
    <mxGraphModel dx="2018" dy="1173" grid="1" gridSize="10" guides="1" tooltips="1" connect="1" arrows="1" fold="1" page="1" pageScale="1" pageWidth="1169" pageHeight="827" math="0" shadow="0">
      <root>
        <mxCell id="0" />
        <mxCell id="1" parent="0" />
        <mxCell id="PHe9VQBaEmlKpY5_7-fe-71" value="Terraform" parent="0" />
        <mxCell id="PHe9VQBaEmlKpY5_7-fe-67" value="" style="rounded=1;whiteSpace=wrap;html=1;align=center;fillColor=#dae8fc;strokeColor=#6c8ebf;" parent="PHe9VQBaEmlKpY5_7-fe-71" vertex="1">
          <mxGeometry x="240" y="80" width="600" height="540" as="geometry" />
        </mxCell>
        <mxCell id="PHe9VQBaEmlKpY5_7-fe-68" value="&lt;b&gt;&lt;font style=&quot;font-size: 15px;&quot;&gt;Terraform&lt;/font&gt;&lt;/b&gt;" style="text;html=1;align=center;verticalAlign=middle;resizable=0;points=[];autosize=1;strokeColor=none;fillColor=none;" parent="PHe9VQBaEmlKpY5_7-fe-71" vertex="1">
          <mxGeometry x="270" y="100" width="90" height="30" as="geometry" />
        </mxCell>
        <mxCell id="PHe9VQBaEmlKpY5_7-fe-72" value="Ansible" parent="0" />
        <mxCell id="PHe9VQBaEmlKpY5_7-fe-75" value="" style="group" parent="PHe9VQBaEmlKpY5_7-fe-72" vertex="1" connectable="0">
          <mxGeometry x="529" y="160.00000000000023" width="132" height="162" as="geometry" />
        </mxCell>
        <mxCell id="PHe9VQBaEmlKpY5_7-fe-76" style="vsdxID=53;fillColor=none;gradientColor=none;strokeColor=none;spacingTop=-3;spacingBottom=-3;spacingLeft=-3;spacingRight=-3;points=[];labelBackgroundColor=none;rounded=0;html=1;whiteSpace=wrap;" parent="PHe9VQBaEmlKpY5_7-fe-75" vertex="1">
          <mxGeometry width="132" height="162" as="geometry" />
        </mxCell>
        <mxCell id="PHe9VQBaEmlKpY5_7-fe-77" style="vsdxID=54;fillColor=none;gradientColor=none;strokeColor=none;spacingTop=-3;spacingBottom=-3;spacingLeft=-3;spacingRight=-3;points=[];labelBackgroundColor=none;rounded=0;html=1;whiteSpace=wrap;" parent="PHe9VQBaEmlKpY5_7-fe-76" vertex="1">
          <mxGeometry width="84" height="84" as="geometry" />
        </mxCell>
        <mxCell id="PHe9VQBaEmlKpY5_7-fe-78" style="vsdxID=55;fillColor=#FFFFFF;gradientColor=none;shape=stencil(lZPRDoIwDEW/Zq9LWUHCs+J/EAVZRCATFP/eYYdsAzW+td2922mzMtxey6zNmYBrp5pzfpfHrmS4Y0LIusyV7HTEMGW4LRqVn1TT10fK22xUjtGluY03DOSLOEajScCDCknC482rsif9oVdkCEggeIjGEfgWGASVwChMmsQchVGgqzBpEvLQfrWStUUJDuKb+QMhuHgz8ERnteDyTnDWVBzcVTiNvnFnCN/o9Cyi2CUEFy8Ab3xWB+hLfOJVxFnuI3+AnA1L6kEsG/HJB1zOxkNfBf39Hf/V62D++4WsKlod+9zfFV2iPcP0CQ==);strokeColor=none;spacingTop=-3;spacingBottom=-3;spacingLeft=-3;spacingRight=-3;points=[];labelBackgroundColor=none;rounded=0;html=1;whiteSpace=wrap;" parent="PHe9VQBaEmlKpY5_7-fe-77" vertex="1">
          <mxGeometry x="1" y="1" width="82" height="82" as="geometry" />
        </mxCell>
        <mxCell id="PHe9VQBaEmlKpY5_7-fe-79" style="vsdxID=56;fillColor=#FFFFFF;gradientColor=none;shape=stencil(lZXRdoIwDIafprc9aUMpvXb6Hp6JgzMmHsSNvf1gLbQNCHpX4h/88iehDHe34njNmYRb29Sf+U95aguGb0zK8lLkTdn2J4Z7hrtz3eQfTX2/nOzz9Tgoh9NX/T28obN5BjmqIUvCr41Ijtl/4GD17/fGJgiXoXhiXIYgKdBJJ9IcR5ELJVy6SIdzkQulPMHwz6vyEsIGCRN+JlZpgxRfgFEEN6jJV5ClhDfwCqlqEbgvR8S8VE95e5c0wdU8lTFu77cmtIprEdMGIs+v9GPYIGG5GZQ1SBCzHstZPXI2LDhzCZdnkIzB5sy+qt/aCXihxbBuWaZiyyD2C6hZdAghdmp9YSAi21wWYHTyREInb+J3EQHANro5Sh41R8U7TeQLGy2Ih56BQgXbPJWCVPPcenj9c9thDNcp/U5O3Ry5Um5EjErsXPjorLu5Nrr9wV8E57Kq7D0S/k4vjj5kLx3c/wE=);strokeColor=none;spacingTop=-3;spacingBottom=-3;spacingLeft=-3;spacingRight=-3;points=[];labelBackgroundColor=none;rounded=0;html=1;whiteSpace=wrap;" parent="PHe9VQBaEmlKpY5_7-fe-77" vertex="1">
          <mxGeometry width="84" height="84" as="geometry" />
        </mxCell>
        <mxCell id="PHe9VQBaEmlKpY5_7-fe-80" style="vsdxID=57;fillColor=none;gradientColor=none;strokeColor=none;spacingTop=-3;spacingBottom=-3;spacingLeft=-3;spacingRight=-3;points=[];labelBackgroundColor=none;rounded=0;html=1;whiteSpace=wrap;" parent="PHe9VQBaEmlKpY5_7-fe-76" vertex="1">
          <mxGeometry x="2" y="2" width="130" height="160" as="geometry" />
        </mxCell>
        <mxCell id="PHe9VQBaEmlKpY5_7-fe-81" style="vsdxID=58;fillColor=#2d5967;gradientColor=none;shape=stencil(lZXLcoMwDEW/xlvGWDzidZr8R6YhhSmFDCEt+ftCbbAkB+Lu/LgyR/IVFrC/ladrIZS89V37WfxU574U8CaUqpqy6Kp+HAk4CNhf2q746Np7czbz62lSTqOv9ns6YTBxOo3SeIpS8mFW5N/saMR11SBxEqlkXft+78zJsdmMI62tOsZyOSgyfdipsrtAd2H5drpOJgmWzra4JIXSO0qFsOcVKSkaqgNQyVO4scZ5RgCZnBPqXSRjSukYONRMueQBXAAOY6OETv+84B6kno9bIBVF1LnLm175AL774KX9XniVGTtzNVzJ38so88puneRSSr2UxihbqK20nCqsszw9hwWvuzCImkV5wmkpKlKE2QQFhPkEBdiVhEPyhoPFWesdB5uUfstxfcDlIwx01+z6EwqKFUF/rgCf/jtgHLj//aWqa/Nc4H3+PoxL5m2Bwy8=);strokeColor=none;spacingTop=-3;spacingBottom=-3;spacingLeft=-3;spacingRight=-3;points=[];labelBackgroundColor=none;rounded=0;html=1;whiteSpace=wrap;" parent="PHe9VQBaEmlKpY5_7-fe-80" vertex="1">
          <mxGeometry width="80" height="80" as="geometry" />
        </mxCell>
        <mxCell id="PHe9VQBaEmlKpY5_7-fe-82" style="vsdxID=59;fillColor=#2d5967;gradientColor=none;shape=stencil(pZJbDsIgFERXwy+hQBW/a91Hk1IhIjQUX7sXcmNsNaWx/s1wz32EDGLVoJpeIkqG4N1J3nQbFGJ7RKm2SnodokKsRqzqnJdH7y62Bd83iUzq7K5pwh36SOqg5AGuIOAPgBptR+iruArOoCvB7PosOv0BjkUxpTdYlPOjdxyXf/GCY7qd57/u+ZVfuGeZj+Idl04bA2kb1z/jFZ8gmqx+Ag==);strokeColor=none;spacingTop=-3;spacingBottom=-3;spacingLeft=-3;spacingRight=-3;points=[];labelBackgroundColor=none;rounded=0;html=1;whiteSpace=wrap;" parent="PHe9VQBaEmlKpY5_7-fe-80" vertex="1">
          <mxGeometry x="11" y="51" width="58" height="17" as="geometry" />
        </mxCell>
        <mxCell id="PHe9VQBaEmlKpY5_7-fe-83" style="vsdxID=60;fillColor=#2d5967;gradientColor=none;shape=stencil(jVLRDoMgDPwaXg2UOeezc/9hJk4ypwZ107+fpCRClxnf2nLH9eCYzIa66BUDPoyme6qPLseaySsD0G2tjB7XismcyazqjHqYbmpL7PvCIm316t72hhl5MbcU4Au2gmN/Q+x9MggWeJwk0Vk4gggZfAYyWGAjgcNIinGDUxql6Z7yxnADgEheQmV/OzfioW5MZHfNWoUkFCVWiVF/JRkijtokJv2ng9+t6Iv/s0l+tdHt4QSsxRadSjcNJs8/p1FbRxhTmX8B);strokeColor=none;spacingTop=-3;spacingBottom=-3;spacingLeft=-3;spacingRight=-3;points=[];labelBackgroundColor=none;rounded=0;html=1;whiteSpace=wrap;" parent="PHe9VQBaEmlKpY5_7-fe-80" vertex="1">
          <mxGeometry x="57" y="58" width="4" height="4" as="geometry" />
        </mxCell>
        <mxCell id="PHe9VQBaEmlKpY5_7-fe-84" style="vsdxID=61;fillColor=#2d5967;gradientColor=none;shape=stencil(pZLbDsIgEES/Zl8JZW3E51r/o0mpEBEa2nr5e0Fi2qrpRd92Z8+QCRnArJFFLYDRpnX2JK6qbCXgHhhTRgqnWj8B5oBZZZ04OtuZMu51Ecgwne0lvHCLvh0nnAcXo/eo0Od2iLBWZgDT38CETqCv4yJ4VdoZePwPHEmyGcFBSSdyp2SL/xl65avhM9Jqw0ykBQY/9NWplNaxecP7e9W8FGuK+QM=);strokeColor=none;spacingTop=-3;spacingBottom=-3;spacingLeft=-3;spacingRight=-3;points=[];labelBackgroundColor=none;rounded=0;html=1;whiteSpace=wrap;" parent="PHe9VQBaEmlKpY5_7-fe-80" vertex="1">
          <mxGeometry x="11" y="11" width="17" height="17" as="geometry" />
        </mxCell>
        <mxCell id="PHe9VQBaEmlKpY5_7-fe-85" style="vsdxID=62;fillColor=#2d5967;gradientColor=none;shape=stencil(pZJJDoMwDEVP422UxGXYU3oPJEKJmhIUoMPtm8iqCnSE7vzj920r+oBZVxetAsm73tmDOuuyrwG3IKVuauV07yvAHDCrrFN7Z4emJN0WgQzV0Z7ChAv5BOfBI/mVNKkdoUY3I3QleN/wEp2vXwSvRac/kG6YTCZwikxEH2bHLI3/M4iIJfje8HzSYsOXk34w+OIRmkobQ5kb9+ch808UUMxv);strokeColor=none;spacingTop=-3;spacingBottom=-3;spacingLeft=-3;spacingRight=-3;points=[];labelBackgroundColor=none;rounded=0;html=1;whiteSpace=wrap;" parent="PHe9VQBaEmlKpY5_7-fe-80" vertex="1">
          <mxGeometry x="31" y="11" width="17" height="17" as="geometry" />
        </mxCell>
        <mxCell id="PHe9VQBaEmlKpY5_7-fe-86" style="vsdxID=63;fillColor=#2d5967;gradientColor=none;shape=stencil(pZLbDsIgEES/Zl8JZW3E51r/o0mpEBEa2nr5e0Fi2qrpRd92Z8+QCRnArJFFLYDRpnX2JK6qbCXgHhhTRgqnWj8B5oBZZZ04OtuZMu51Ecgwne0lvHCLvh0nnAcXo/eo0Od2iLBWZgDT38CETqCv4yJ4VdoZePwPHEmyGcFBSSdyp2SL/xl65avhM9Jqw0ykBQY/9NWplNaxecP7e9W8FGuK+QM=);strokeColor=none;spacingTop=-3;spacingBottom=-3;spacingLeft=-3;spacingRight=-3;points=[];labelBackgroundColor=none;rounded=0;html=1;whiteSpace=wrap;" parent="PHe9VQBaEmlKpY5_7-fe-80" vertex="1">
          <mxGeometry x="11" y="31" width="17" height="17" as="geometry" />
        </mxCell>
        <mxCell id="PHe9VQBaEmlKpY5_7-fe-87" style="vsdxID=64;fillColor=#2d5967;gradientColor=none;shape=stencil(pZJJDoMwDEVP422UxGXYU3oPJEKJmhIUoMPtm8iqCnSE7vzj920r+oBZVxetAsm73tmDOuuyrwG3IKVuauV07yvAHDCrrFN7Z4emJN0WgQzV0Z7ChAv5BOfBI/mVNKkdoUY3I3QleN/wEp2vXwSvRac/kG6YTCZwikxEH2bHLI3/M4iIJfje8HzSYsOXk34w+OIRmkobQ5kb9+ch808UUMxv);strokeColor=none;spacingTop=-3;spacingBottom=-3;spacingLeft=-3;spacingRight=-3;points=[];labelBackgroundColor=none;rounded=0;html=1;whiteSpace=wrap;" parent="PHe9VQBaEmlKpY5_7-fe-80" vertex="1">
          <mxGeometry x="31" y="31" width="17" height="17" as="geometry" />
        </mxCell>
        <mxCell id="PHe9VQBaEmlKpY5_7-fe-88" style="vsdxID=65;fillColor=#2d5967;gradientColor=none;shape=stencil(pZJJDoMwDEVP422UxGXYU3oPJEKJmhIUoMPtm8iqCnSE7vzj920r+oBZVxetAsm73tmDOuuyrwG3IKVuauV07yvAHDCrrFN7Z4emJN0WgQzV0Z7ChAv5BOfBI/mVNKkdoUY3I3QleN/wEp2vXwSvRac/kG6YTCZwikxEH2bHLI3/M4iIJfje8HzSYsOXk34w+OIRmkobQ5kb9+ch808UUMxv);strokeColor=none;spacingTop=-3;spacingBottom=-3;spacingLeft=-3;spacingRight=-3;points=[];labelBackgroundColor=none;rounded=0;html=1;whiteSpace=wrap;" parent="PHe9VQBaEmlKpY5_7-fe-80" vertex="1">
          <mxGeometry x="51" y="11" width="17" height="17" as="geometry" />
        </mxCell>
        <mxCell id="PHe9VQBaEmlKpY5_7-fe-89" style="vsdxID=66;fillColor=#2d5967;gradientColor=none;shape=stencil(pZJJDoMwDEVP422UxGXYU3oPJEKJmhIUoMPtm8iqCnSE7vzj920r+oBZVxetAsm73tmDOuuyrwG3IKVuauV07yvAHDCrrFN7Z4emJN0WgQzV0Z7ChAv5BOfBI/mVNKkdoUY3I3QleN/wEp2vXwSvRac/kG6YTCZwikxEH2bHLI3/M4iIJfje8HzSYsOXk34w+OIRmkobQ5kb9+ch808UUMxv);strokeColor=none;spacingTop=-3;spacingBottom=-3;spacingLeft=-3;spacingRight=-3;points=[];labelBackgroundColor=none;rounded=0;html=1;whiteSpace=wrap;" parent="PHe9VQBaEmlKpY5_7-fe-80" vertex="1">
          <mxGeometry x="51" y="31" width="17" height="17" as="geometry" />
        </mxCell>
        <mxCell id="PHe9VQBaEmlKpY5_7-fe-90" value="" style="rounded=1;whiteSpace=wrap;html=1;fillColor=#fff2cc;strokeColor=#d6b656;" parent="PHe9VQBaEmlKpY5_7-fe-80" vertex="1">
          <mxGeometry x="-41" y="-42" width="171" height="202" as="geometry" />
        </mxCell>
        <mxCell id="PHe9VQBaEmlKpY5_7-fe-92" value="&lt;b&gt;&lt;font style=&quot;font-size: 14px;&quot;&gt;Ansible&lt;/font&gt;&lt;/b&gt;" style="text;html=1;align=center;verticalAlign=middle;resizable=0;points=[];autosize=1;strokeColor=none;fillColor=none;" parent="PHe9VQBaEmlKpY5_7-fe-80" vertex="1">
          <mxGeometry x="54" y="-42.00000000000023" width="70" height="30" as="geometry" />
        </mxCell>
        <mxCell id="PHe9VQBaEmlKpY5_7-fe-74" value="" style="rounded=1;whiteSpace=wrap;html=1;fillColor=#fff2cc;strokeColor=#d6b656;" parent="PHe9VQBaEmlKpY5_7-fe-72" vertex="1">
          <mxGeometry x="490" y="340.0000000000002" width="171" height="202" as="geometry" />
        </mxCell>
        <mxCell id="PHe9VQBaEmlKpY5_7-fe-73" value="Resources" parent="0" />
        <mxCell id="PHe9VQBaEmlKpY5_7-fe-25" value="" style="group" parent="PHe9VQBaEmlKpY5_7-fe-73" vertex="1" connectable="0">
          <mxGeometry x="519" y="150.00000000000023" width="132" height="162" as="geometry" />
        </mxCell>
        <mxCell id="PHe9VQBaEmlKpY5_7-fe-26" style="vsdxID=53;fillColor=none;gradientColor=none;strokeColor=none;spacingTop=-3;spacingBottom=-3;spacingLeft=-3;spacingRight=-3;points=[];labelBackgroundColor=none;rounded=0;html=1;whiteSpace=wrap;" parent="PHe9VQBaEmlKpY5_7-fe-25" vertex="1">
          <mxGeometry width="132" height="162" as="geometry" />
        </mxCell>
        <mxCell id="PHe9VQBaEmlKpY5_7-fe-27" style="vsdxID=54;fillColor=none;gradientColor=none;strokeColor=none;spacingTop=-3;spacingBottom=-3;spacingLeft=-3;spacingRight=-3;points=[];labelBackgroundColor=none;rounded=0;html=1;whiteSpace=wrap;" parent="PHe9VQBaEmlKpY5_7-fe-26" vertex="1">
          <mxGeometry width="84" height="84" as="geometry" />
        </mxCell>
        <mxCell id="PHe9VQBaEmlKpY5_7-fe-28" style="vsdxID=55;fillColor=#FFFFFF;gradientColor=none;shape=stencil(lZPRDoIwDEW/Zq9LWUHCs+J/EAVZRCATFP/eYYdsAzW+td2922mzMtxey6zNmYBrp5pzfpfHrmS4Y0LIusyV7HTEMGW4LRqVn1TT10fK22xUjtGluY03DOSLOEajScCDCknC482rsif9oVdkCEggeIjGEfgWGASVwChMmsQchVGgqzBpEvLQfrWStUUJDuKb+QMhuHgz8ERnteDyTnDWVBzcVTiNvnFnCN/o9Cyi2CUEFy8Ab3xWB+hLfOJVxFnuI3+AnA1L6kEsG/HJB1zOxkNfBf39Hf/V62D++4WsKlod+9zfFV2iPcP0CQ==);strokeColor=none;spacingTop=-3;spacingBottom=-3;spacingLeft=-3;spacingRight=-3;points=[];labelBackgroundColor=none;rounded=0;html=1;whiteSpace=wrap;" parent="PHe9VQBaEmlKpY5_7-fe-27" vertex="1">
          <mxGeometry x="1" y="1" width="82" height="82" as="geometry" />
        </mxCell>
        <mxCell id="PHe9VQBaEmlKpY5_7-fe-29" style="vsdxID=56;fillColor=#FFFFFF;gradientColor=none;shape=stencil(lZXRdoIwDIafprc9aUMpvXb6Hp6JgzMmHsSNvf1gLbQNCHpX4h/88iehDHe34njNmYRb29Sf+U95aguGb0zK8lLkTdn2J4Z7hrtz3eQfTX2/nOzz9Tgoh9NX/T28obN5BjmqIUvCr41Ijtl/4GD17/fGJgiXoXhiXIYgKdBJJ9IcR5ELJVy6SIdzkQulPMHwz6vyEsIGCRN+JlZpgxRfgFEEN6jJV5ClhDfwCqlqEbgvR8S8VE95e5c0wdU8lTFu77cmtIprEdMGIs+v9GPYIGG5GZQ1SBCzHstZPXI2LDhzCZdnkIzB5sy+qt/aCXihxbBuWaZiyyD2C6hZdAghdmp9YSAi21wWYHTyREInb+J3EQHANro5Sh41R8U7TeQLGy2Ih56BQgXbPJWCVPPcenj9c9thDNcp/U5O3Ry5Um5EjErsXPjorLu5Nrr9wV8E57Kq7D0S/k4vjj5kLx3c/wE=);strokeColor=none;spacingTop=-3;spacingBottom=-3;spacingLeft=-3;spacingRight=-3;points=[];labelBackgroundColor=none;rounded=0;html=1;whiteSpace=wrap;" parent="PHe9VQBaEmlKpY5_7-fe-27" vertex="1">
          <mxGeometry width="84" height="84" as="geometry" />
        </mxCell>
        <mxCell id="PHe9VQBaEmlKpY5_7-fe-30" style="vsdxID=57;fillColor=none;gradientColor=none;strokeColor=none;spacingTop=-3;spacingBottom=-3;spacingLeft=-3;spacingRight=-3;points=[];labelBackgroundColor=none;rounded=0;html=1;whiteSpace=wrap;" parent="PHe9VQBaEmlKpY5_7-fe-26" vertex="1">
          <mxGeometry x="2" y="2" width="130" height="160" as="geometry" />
        </mxCell>
        <mxCell id="PHe9VQBaEmlKpY5_7-fe-31" style="vsdxID=58;fillColor=#2d5967;gradientColor=none;shape=stencil(lZXLcoMwDEW/xlvGWDzidZr8R6YhhSmFDCEt+ftCbbAkB+Lu/LgyR/IVFrC/ladrIZS89V37WfxU574U8CaUqpqy6Kp+HAk4CNhf2q746Np7czbz62lSTqOv9ns6YTBxOo3SeIpS8mFW5N/saMR11SBxEqlkXft+78zJsdmMI62tOsZyOSgyfdipsrtAd2H5drpOJgmWzra4JIXSO0qFsOcVKSkaqgNQyVO4scZ5RgCZnBPqXSRjSukYONRMueQBXAAOY6OETv+84B6kno9bIBVF1LnLm175AL774KX9XniVGTtzNVzJ38so88puneRSSr2UxihbqK20nCqsszw9hwWvuzCImkV5wmkpKlKE2QQFhPkEBdiVhEPyhoPFWesdB5uUfstxfcDlIwx01+z6EwqKFUF/rgCf/jtgHLj//aWqa/Nc4H3+PoxL5m2Bwy8=);strokeColor=none;spacingTop=-3;spacingBottom=-3;spacingLeft=-3;spacingRight=-3;points=[];labelBackgroundColor=none;rounded=0;html=1;whiteSpace=wrap;" parent="PHe9VQBaEmlKpY5_7-fe-30" vertex="1">
          <mxGeometry width="80" height="80" as="geometry" />
        </mxCell>
        <mxCell id="PHe9VQBaEmlKpY5_7-fe-32" style="vsdxID=59;fillColor=#2d5967;gradientColor=none;shape=stencil(pZJbDsIgFERXwy+hQBW/a91Hk1IhIjQUX7sXcmNsNaWx/s1wz32EDGLVoJpeIkqG4N1J3nQbFGJ7RKm2SnodokKsRqzqnJdH7y62Bd83iUzq7K5pwh36SOqg5AGuIOAPgBptR+iruArOoCvB7PosOv0BjkUxpTdYlPOjdxyXf/GCY7qd57/u+ZVfuGeZj+Idl04bA2kb1z/jFZ8gmqx+Ag==);strokeColor=none;spacingTop=-3;spacingBottom=-3;spacingLeft=-3;spacingRight=-3;points=[];labelBackgroundColor=none;rounded=0;html=1;whiteSpace=wrap;" parent="PHe9VQBaEmlKpY5_7-fe-30" vertex="1">
          <mxGeometry x="11" y="51" width="58" height="17" as="geometry" />
        </mxCell>
        <mxCell id="PHe9VQBaEmlKpY5_7-fe-33" style="vsdxID=60;fillColor=#2d5967;gradientColor=none;shape=stencil(jVLRDoMgDPwaXg2UOeezc/9hJk4ypwZ107+fpCRClxnf2nLH9eCYzIa66BUDPoyme6qPLseaySsD0G2tjB7XismcyazqjHqYbmpL7PvCIm316t72hhl5MbcU4Au2gmN/Q+x9MggWeJwk0Vk4gggZfAYyWGAjgcNIinGDUxql6Z7yxnADgEheQmV/OzfioW5MZHfNWoUkFCVWiVF/JRkijtokJv2ng9+t6Iv/s0l+tdHt4QSsxRadSjcNJs8/p1FbRxhTmX8B);strokeColor=none;spacingTop=-3;spacingBottom=-3;spacingLeft=-3;spacingRight=-3;points=[];labelBackgroundColor=none;rounded=0;html=1;whiteSpace=wrap;" parent="PHe9VQBaEmlKpY5_7-fe-30" vertex="1">
          <mxGeometry x="57" y="58" width="4" height="4" as="geometry" />
        </mxCell>
        <mxCell id="PHe9VQBaEmlKpY5_7-fe-34" style="vsdxID=61;fillColor=#2d5967;gradientColor=none;shape=stencil(pZLbDsIgEES/Zl8JZW3E51r/o0mpEBEa2nr5e0Fi2qrpRd92Z8+QCRnArJFFLYDRpnX2JK6qbCXgHhhTRgqnWj8B5oBZZZ04OtuZMu51Ecgwne0lvHCLvh0nnAcXo/eo0Od2iLBWZgDT38CETqCv4yJ4VdoZePwPHEmyGcFBSSdyp2SL/xl65avhM9Jqw0ykBQY/9NWplNaxecP7e9W8FGuK+QM=);strokeColor=none;spacingTop=-3;spacingBottom=-3;spacingLeft=-3;spacingRight=-3;points=[];labelBackgroundColor=none;rounded=0;html=1;whiteSpace=wrap;" parent="PHe9VQBaEmlKpY5_7-fe-30" vertex="1">
          <mxGeometry x="11" y="11" width="17" height="17" as="geometry" />
        </mxCell>
        <mxCell id="PHe9VQBaEmlKpY5_7-fe-35" style="vsdxID=62;fillColor=#2d5967;gradientColor=none;shape=stencil(pZJJDoMwDEVP422UxGXYU3oPJEKJmhIUoMPtm8iqCnSE7vzj920r+oBZVxetAsm73tmDOuuyrwG3IKVuauV07yvAHDCrrFN7Z4emJN0WgQzV0Z7ChAv5BOfBI/mVNKkdoUY3I3QleN/wEp2vXwSvRac/kG6YTCZwikxEH2bHLI3/M4iIJfje8HzSYsOXk34w+OIRmkobQ5kb9+ch808UUMxv);strokeColor=none;spacingTop=-3;spacingBottom=-3;spacingLeft=-3;spacingRight=-3;points=[];labelBackgroundColor=none;rounded=0;html=1;whiteSpace=wrap;" parent="PHe9VQBaEmlKpY5_7-fe-30" vertex="1">
          <mxGeometry x="31" y="11" width="17" height="17" as="geometry" />
        </mxCell>
        <mxCell id="PHe9VQBaEmlKpY5_7-fe-36" style="vsdxID=63;fillColor=#2d5967;gradientColor=none;shape=stencil(pZLbDsIgEES/Zl8JZW3E51r/o0mpEBEa2nr5e0Fi2qrpRd92Z8+QCRnArJFFLYDRpnX2JK6qbCXgHhhTRgqnWj8B5oBZZZ04OtuZMu51Ecgwne0lvHCLvh0nnAcXo/eo0Od2iLBWZgDT38CETqCv4yJ4VdoZePwPHEmyGcFBSSdyp2SL/xl65avhM9Jqw0ykBQY/9NWplNaxecP7e9W8FGuK+QM=);strokeColor=none;spacingTop=-3;spacingBottom=-3;spacingLeft=-3;spacingRight=-3;points=[];labelBackgroundColor=none;rounded=0;html=1;whiteSpace=wrap;" parent="PHe9VQBaEmlKpY5_7-fe-30" vertex="1">
          <mxGeometry x="11" y="31" width="17" height="17" as="geometry" />
        </mxCell>
        <mxCell id="PHe9VQBaEmlKpY5_7-fe-37" style="vsdxID=64;fillColor=#2d5967;gradientColor=none;shape=stencil(pZJJDoMwDEVP422UxGXYU3oPJEKJmhIUoMPtm8iqCnSE7vzj920r+oBZVxetAsm73tmDOuuyrwG3IKVuauV07yvAHDCrrFN7Z4emJN0WgQzV0Z7ChAv5BOfBI/mVNKkdoUY3I3QleN/wEp2vXwSvRac/kG6YTCZwikxEH2bHLI3/M4iIJfje8HzSYsOXk34w+OIRmkobQ5kb9+ch808UUMxv);strokeColor=none;spacingTop=-3;spacingBottom=-3;spacingLeft=-3;spacingRight=-3;points=[];labelBackgroundColor=none;rounded=0;html=1;whiteSpace=wrap;" parent="PHe9VQBaEmlKpY5_7-fe-30" vertex="1">
          <mxGeometry x="31" y="31" width="17" height="17" as="geometry" />
        </mxCell>
        <mxCell id="PHe9VQBaEmlKpY5_7-fe-38" style="vsdxID=65;fillColor=#2d5967;gradientColor=none;shape=stencil(pZJJDoMwDEVP422UxGXYU3oPJEKJmhIUoMPtm8iqCnSE7vzj920r+oBZVxetAsm73tmDOuuyrwG3IKVuauV07yvAHDCrrFN7Z4emJN0WgQzV0Z7ChAv5BOfBI/mVNKkdoUY3I3QleN/wEp2vXwSvRac/kG6YTCZwikxEH2bHLI3/M4iIJfje8HzSYsOXk34w+OIRmkobQ5kb9+ch808UUMxv);strokeColor=none;spacingTop=-3;spacingBottom=-3;spacingLeft=-3;spacingRight=-3;points=[];labelBackgroundColor=none;rounded=0;html=1;whiteSpace=wrap;" parent="PHe9VQBaEmlKpY5_7-fe-30" vertex="1">
          <mxGeometry x="51" y="11" width="17" height="17" as="geometry" />
        </mxCell>
        <mxCell id="PHe9VQBaEmlKpY5_7-fe-39" style="vsdxID=66;fillColor=#2d5967;gradientColor=none;shape=stencil(pZJJDoMwDEVP422UxGXYU3oPJEKJmhIUoMPtm8iqCnSE7vzj920r+oBZVxetAsm73tmDOuuyrwG3IKVuauV07yvAHDCrrFN7Z4emJN0WgQzV0Z7ChAv5BOfBI/mVNKkdoUY3I3QleN/wEp2vXwSvRac/kG6YTCZwikxEH2bHLI3/M4iIJfje8HzSYsOXk34w+OIRmkobQ5kb9+ch808UUMxv);strokeColor=none;spacingTop=-3;spacingBottom=-3;spacingLeft=-3;spacingRight=-3;points=[];labelBackgroundColor=none;rounded=0;html=1;whiteSpace=wrap;" parent="PHe9VQBaEmlKpY5_7-fe-30" vertex="1">
          <mxGeometry x="51" y="31" width="17" height="17" as="geometry" />
        </mxCell>
        <mxCell id="PHe9VQBaEmlKpY5_7-fe-40" value="&lt;div style=&quot;&quot;&gt;&lt;p style=&quot;margin: 0px; text-indent: 0px; direction: ltr;&quot;&gt;&lt;font face=&quot;Oracle Sans&quot;&gt;&lt;span style=&quot;font-size: 16.93px;&quot;&gt;Web Server&lt;/span&gt;&lt;/font&gt;&lt;/p&gt;&lt;/div&gt;" style="verticalAlign=middle;align=center;vsdxID=68;fillColor=none;gradientColor=none;shape=stencil(nZBLDoAgDERP0z3SIyjew0SURgSD+Lu9kMZoXLhwN9O+tukAlrNpJg1SzDH4QW/URgNYgZTkjA4UkwJUgGXng+6DX1zLfmoymdXo17xh5zmRJ6Q42BWCfc2oJfdAr+Yv+AP9Cb7OJ3H/2JG1HNGz/84klThPVCc=);strokeColor=none;spacingTop=-3;spacingBottom=-3;spacingLeft=-3;spacingRight=-3;points=[];labelBackgroundColor=none;rounded=0;html=1;whiteSpace=wrap;" parent="PHe9VQBaEmlKpY5_7-fe-25" vertex="1">
          <mxGeometry x="4" y="89" width="76" height="41" as="geometry" />
        </mxCell>
        <mxCell id="PHe9VQBaEmlKpY5_7-fe-57" style="vsdxID=21;fillColor=none;gradientColor=none;strokeColor=none;spacingTop=-3;spacingBottom=-3;spacingLeft=-3;spacingRight=-3;points=[];labelBackgroundColor=none;rounded=0;html=1;whiteSpace=wrap;" parent="PHe9VQBaEmlKpY5_7-fe-73" vertex="1">
          <mxGeometry x="279" y="270" width="84" height="84" as="geometry" />
        </mxCell>
        <mxCell id="PHe9VQBaEmlKpY5_7-fe-58" style="vsdxID=22;fillColor=#FFFFFF;gradientColor=none;shape=stencil(lZfbUhsxDIafJrcaW/LxmtL3YEoomaYJE0ILb1+lG8trOeuFu2Ck/WxL+iVv6O71+eFlu0Hzej4df23/7h7Pzxv6tkHcHZ63p92Zf23ofkN3T8fT9ufp+HZ4nP5+ebhYXn79Pv65fOF98osOEl680HxMKymCp/8r3yeH/e4wd8hgUutAQHbZITnA3DokcHnu8OPtNO3JyhdD2VRZspAmiHlHWXLuanVdigg2Xq1IDpiL1XUp+LKjBX7IEF3L9xlybvkBIfiW7wNkavmeYbbls1VMI/7cpyxFwNTy51YoVjGu8xNgHPIdxBYfUj1YYVm5Ebn+DJRavON9hxbP4c9+hHc1ioWfOSldy6cIhlp+Zj62fCLwueVXqwU+IWTNZx91frYi1/FRXT9ZiNTxbRjxEevJ6vkptnwbwCh+QoEVviXJCEn/DIFGfIvVp8TfgUXFR0Bs+ZxYEiUSq+Io6YelIm/qhWm04kvGLgyN53tZcLhxFejbq3AWLHVXkWJ7FeSBfBeKrEoBORRjfgSrlMhaUezCR65XpUQGdCKSCGihF5ulMmClzy27fvWKcRxxdXJX2keVIJZzdXAy5V6XJYjUwanPQbZKSgIpgVEawBJoVA1wEMeBn/tUWXJe8WdWKFY3WkDHp9K7lloQlsyofOpaAJdyUoF3pqhLbYFeMlbunzNmqEHcXIPSIIx9C+bIqh5gk2Rs4c8ngFIL3LubFrg2ZLDahTxw6MYYrkkXlx14yin1+TGXkpvGrNgpfeXr2VfV/9T+s5Hc+pAb8sMKSbwpLQ1JFEYiVBunVIiRcEiGsA6pDOU6isMMjQFQZyjfisqQ2E8JzkvjKPzQTwkrWs5DhG0vbM2Bp9TWHktLX0oQFREeOPIghNaoZiRJs/j9dizmkh/th6u/PQB3WzMC8JQdWodxLw0BUh47dDnQqwRLctA54EGlgJ+NMzUFpSBLVtgR+1LBLZrV0KkhkYtE6XMy0qsLmouvjK2zGXWUHH19c3jsqL47BVl5ZvX6VPLrk/q39oxbd+Af9dX4tNvvp0fn/P/6lclL0wuV7v8B);strokeColor=none;spacingTop=-3;spacingBottom=-3;spacingLeft=-3;spacingRight=-3;points=[];labelBackgroundColor=none;rounded=0;html=1;whiteSpace=wrap;" parent="PHe9VQBaEmlKpY5_7-fe-57" vertex="1">
          <mxGeometry x="1" y="1" width="82" height="81" as="geometry" />
        </mxCell>
        <mxCell id="PHe9VQBaEmlKpY5_7-fe-59" style="vsdxID=23;fillColor=#FFFFFF;gradientColor=none;shape=stencil(lVrbctw2DP0av3J4vzyn6X9kGqf21I0zjtMmf1+oKwLk4QrafVvLgA4J4nIA6iF8+P706dvjg7ff399e/3r89/nz+9ND+O3B++evT49vz+/06yF8fAgfvry+Pf759vrj6+fL398+bZLbr79f/9ne8POiV7OxedPy9tflSTC+/f/g94v8y/PXUb6a6Cb5ZHI4lm/WlDLJF1O9Ip9NmtfjgikaQDR+XpDjLR2tKIVZwatboC27OitYsNEfP94uRnW7SjHN7yqOV3VRsT89m9530+yPfDNxh/oZdnORveIutT8KdAZFgy/R1DTDR2dSnPGLM77O+DHO4LmYEGbwmIyKnYMJFbCLAejUjAsAXU2YwRPtAsFJaEKHk2qmzCd1pkC+lWYF8gXN/bNxs7dFa5yCsPpzbKYlFcFP8tmaoARM5fDggCSP0Y3UZoTk1AhLhNB0BXSCNISME53ZCbKXQOx+4dla7IJkwB4l4hg+qv5vTYbwS4l3zf4fF/+ndYc241P8BYi/TLHk1PBPBnZPK4oJwr+Y1GZ4OksL4T9mksAHuHv5UX7zc8atHMU3ZlBahwawuDT5rBZlWw2Y5Js3mkdXsTivMEVFgc52dlBaohoCwcQFwWoKzrSIW1BqTEkmpXtMVKqxAc+gaUZyJs+pbvMnzUhkw3kHtpv5yIvJLyCKhkfsxt0Q7MWln67EUOzHITEU+4aPYthLpu2lhQoWBFGuBkO4GZtm+JyMyzM85ciklzGKcUwhWaLT82uyA/zE3suFLJiMKSz1RHOUQQcdwcftb1KYQgvbbcBPYdl/qyf4i/krm5Hx7ZLDyJMdFPI4FE1Ja+rpE13JeYanEC2w/VB6IWB4ivwM5g8USQAvUgf4YWUx45s7vhduNuADvDdhhU8aOnHwXoaG3Veon64Iy+vBaBHdpYVEbTGjnr2LQqOE1WHgu6FsiO8hfSUph76n0w0y11xd7pUnzucVgjWu6EDhikEceGOUUx0MUiAYQ2Y3Ug4kcEdyhF/Fz2RJFvCpE2twIMFAKgxR6kx/ZKIKTt1GAXBWYWyi+B4TQa+okoc8P2JwZ6yeB70Y1fEeCubhIHzT87IjUDmSisCl6Bi9zmQHnX70QXYm+EhlSaphQ0NSFfAjdMMLfhEdJzpYBqW7k1auW3asgx4bKn9WB+vSyVJutoC/lXxoZQNXZmYBSUYN/fjJZVV4YhcVyhA5VgHPr3GpAxRmGVIhSUUwf4MysHAsmF0434njjSyOun6nUOmVJ7rQQ/2QiM7Zjgqp1k0GOfL9QCHglu7zvnHQqfzZuMkqL49SBnfr9EM9Mk6C9t9ETd5K0tqjzRR/LF9CL5yDP2htwxYWMJvSh1lXEFIvb9cVcj9+VijqAOOKizbVg0qD5u0EYGtMHG5BpRt0DEg3qKgj16I+vEGKpfDFElOkNP2SkhfUbn3oIXqFaUuG24YVmGGdqVhhEj8aK4xi3lGDFaxeEpKQfqnRwM5IyGFGjgYbkyhNjnCRrDPztsxWMucYpgO2B5IkZANdSViZYZe5aqmNxs89OIgvLDouLZwsoq8q9/orCyX7g50oalNb7ORU9G2oDJWLql0AQw1gv8R2GUzl3OpWTPauGsvOLnWPMDmFNj4f13KgcMUUFg5iGwBjO+OlFvago7qO/Uzos2/pZ1qf4x3hD5RbeAXSd3KOApMM6tN4aCiEFUcZrXbFIwY9DDod61TgsOTf2E+RVEMCHxZXEKkj/CK5y61v7n7nhVp0/LL28lXOsvOqs+uIxDN1mYdWHtkNGStAKFJmRhJHUjyx74+qcWcJEzsY0rF4JzFIST+L9r+Gj/P2pcAM7FjwMWfm4WaNaf0MXoYjEk6vTzKobia4CyqWkx4zaGsg9kjPAzyVdoy9imO8E/JAcec1PryOQbEenfGfM4SFYdEWslcUFg633dDch8DU5UYa2jjv3diXNPbKG4l0qzD8PaP1zmpEveAd1Mn7m+XmVCb2VilRzS8Tex6QXleocnPJi6xaXbNzGdxOWVvQ+v7YA+26Qurwg6dqABFvnclPtG6mebzX3gAUz94uAhtuYQ6Fhaq3pZJTCxshk9dhztAzWZZ615NZWyeD7WQcQOHeoJJuI3jIpCXK8FaSO46Fi7t2sahRn3HMcJuC5z6iK+hetR0xfF1xcpm7IjSjZwIAyO7sOtrObphD56eHuSDdg0CR5JbrZQ2hNZlz7qSkqfy2ycXFMPHVrFrwco0arKDk/O0GEsYgGUjhmpEjIkTtHFy/sBk+PGjaHuwyFycapiEsrhRPylCQ3mlX0PsMijhIgYvClS9ZkDrSqjpPHGYDHujLOJ+XhBNx/th6T3l8kx+BPREDR+pY189ZttETzCbGfCuXAVGveut0p2h1NWBKd81o8kluGW8DoFCCJvxkC00GuLtC6OzlVgQPrfZqpHkPWXVb4h6YDfQkXgyM5NQR3n0TTl2Yfsh3e1+eX14un/2N/8fv/OjR5RvB8PE/);strokeColor=none;spacingTop=-3;spacingBottom=-3;spacingLeft=-3;spacingRight=-3;points=[];labelBackgroundColor=none;rounded=0;html=1;whiteSpace=wrap;" parent="PHe9VQBaEmlKpY5_7-fe-57" vertex="1">
          <mxGeometry width="84" height="84" as="geometry" />
        </mxCell>
        <mxCell id="PHe9VQBaEmlKpY5_7-fe-60" style="vsdxID=24;fillColor=#2d5967;gradientColor=none;shape=stencil(lVPLUsMwDPwaXzWSLb/Opf2PDk2Jh5B00hTavyfBNsQwNXCT5V3tWpaE2pzb/akREs/TODw3b+EwtUI9CClD3zZjmOZIqK1Qm+MwNk/jcOkP8XzaL8glehlelwrXyCMD2i0sibeY0RbMR2IX8V3oV3hHQPofeKNA2wLvLPj7eIugfYEnxPvwfJnB7MDpanVZuq/U/mmdJDBXeoNgyl4yVglkwVKd8HgZ43dRohD4bCqlmEGmll1lsg6Yn5kybEGaBFLrp+MtHdmDopq0BsOlsqZM+VSe/ZEvpTUDulJ6PXXqL2P0+5jOwdeMH0PXxRVZ33/fiTkV90lt3wE=);strokeColor=none;spacingTop=-3;spacingBottom=-3;spacingLeft=-3;spacingRight=-3;points=[];labelBackgroundColor=none;rounded=0;html=1;whiteSpace=wrap;" parent="PHe9VQBaEmlKpY5_7-fe-57" vertex="1">
          <mxGeometry x="51" y="33" width="29" height="17" as="geometry" />
        </mxCell>
        <mxCell id="PHe9VQBaEmlKpY5_7-fe-61" style="vsdxID=25;fillColor=#2d5967;gradientColor=none;shape=stencil(lVjbchQ7DPyafVXZlq/PHPgPCgLZIiehlnD7e2R2bI/bO9ribeNI07YstVo+8Ztvj++/Ppyc+fZ6efny8PP88fXxxP+dnDs/Pz5czq/y68RvT/zm08vl4fPl5fvzx+vfX99Xy/rr/5cf9Qu/rn6FKbjq5czv60ouVMLflXdXh6fz897BkuHJoTgKee/w4fvlCmE3A0MxbS7bUg7kryu/3LaSKTWjbSlZynmz4m2p0Lbye1uJjthq6ClSCDN6yFTSDJ8cxTjDh0jsZviYidOMH3wL4AF+9GTg9MFRcjN+KOQRX45vZ3wBg+NXI6/B71zaiqFQAH0YbSu+EPt74D6TVWMvp4LQVxc4ugTIwtF9Igs3L6H3BeBD2+PR1TvKDvAl3+2MLwmSGPBNd2z42czgnMir4JLQBQ7v0vis67UBWW89cZixxahA2iVySSlSJt8ctpVWXbftU7+nbRNMirk1Zra25NTN5Mlc8kgnmJlfHCnWEuX540axDWDLiq0nH2DXrOwjJUoYE6OEMBtixpAHzcFDWIpuLgky71+yfNr/kq+JDBSLbAnSVULYvrqtyHdNYxPusejYrVo8Fb1UPTngKamwkmf4JNXil1JlpIo4yr5RhSOjMpW0kTLDC1NEBprMFAvAjzzZ8aSH41crnSh3PgO/dYQdTXsIvxwsrDztgC28pXivS/SuPsIfoUcHHq10W2LufbPju1bfHb/Sj9okhfDx9ilDi+bcu2ZDN2Qg+LKfTuYMRgfYDgJvlg5lE2a9VHcTAg258nZajj1zAEJLgVk8dxiqo4G5Jez1QhHfEWZdJjPd+kwRM4f/k7GojhSPjXdbObBfAuEamw2ZIuWPgZBwQSCquoIUkItA+hHe0IWKjeSB/LIowhleOhHoBOmbhWd0to1nO3opFFWBzF3DdnTxSUB+YpVBpYlVRnxe2GdYHeHHoS/s+uU153bnB+71sQn7hp7voUtyWChB6Y4GVJpwT4box9J7qMJ9Qtq6UNv7jNwLkHti1epyNyCEsuD3PGpLoTHkEX5uidbhxQWOL/0phQUemF8aX0R0ydCioUtpeBwQShvoRuPl9pkRfbvkvijpAvhSn0WtPFEUjW4bftr1lKY7dl8eSwHwRcJYzH0mM9XeoqrsTFWitVWHRbfJPuyx/aILq2DV9KxflLskg+YQx3jZi1JVtnm05438jCKaqxwP+H1NvjN+XntNwEniTnSWOUUP/r8/btx3mJ9PPHY6ScGgsp3oVUh3iTDoLOHjCMUuWbAw/XhF6Nkemow70jppqbYC4M4uRJdH3+1NNvfq76VeyOlNVroFiOwo3QrajFgxaPxKx9BnqhUwnTReJRe4wPB3z15mnzkVhKddURzCuI7tcAa4b3aQVglzcWkPPkcAwFWiiLMyA0qCxNlBWnhQRB4XyOYqCpUjyyU43f5GCjhodnU0g15bEwV6vRy+wJxxIwVFcOvdrl/p0J0tRD3/1zHDj+e6obIizlikSn25Kxxwm8dQWP7GnOFB50uMUeKwgWu9IbEYTu5vjHdmoZ36BAth98ucsXAe5PldjpQf43360/np6fq8vf8/vmfL0vUtnN/+AQ==);strokeColor=none;spacingTop=-3;spacingBottom=-3;spacingLeft=-3;spacingRight=-3;points=[];labelBackgroundColor=none;rounded=0;html=1;whiteSpace=wrap;" parent="PHe9VQBaEmlKpY5_7-fe-57" vertex="1">
          <mxGeometry x="1" y="2" width="79" height="79" as="geometry" />
        </mxCell>
        <mxCell id="PHe9VQBaEmlKpY5_7-fe-1" style="vsdxID=12;fillColor=none;gradientColor=none;strokeColor=none;spacingTop=-3;spacingBottom=-3;spacingLeft=-3;spacingRight=-3;points=[];labelBackgroundColor=none;rounded=0;html=1;whiteSpace=wrap;" parent="PHe9VQBaEmlKpY5_7-fe-73" vertex="1">
          <mxGeometry x="110" y="272" width="66" height="84" as="geometry" />
        </mxCell>
        <mxCell id="PHe9VQBaEmlKpY5_7-fe-2" style="vsdxID=13;fillColor=none;gradientColor=none;strokeColor=none;spacingTop=-3;spacingBottom=-3;spacingLeft=-3;spacingRight=-3;points=[];labelBackgroundColor=none;rounded=0;html=1;whiteSpace=wrap;" parent="PHe9VQBaEmlKpY5_7-fe-1" vertex="1">
          <mxGeometry width="66" height="84" as="geometry" />
        </mxCell>
        <mxCell id="PHe9VQBaEmlKpY5_7-fe-3" style="vsdxID=14;fillColor=none;gradientColor=none;strokeColor=none;spacingTop=-3;spacingBottom=-3;spacingLeft=-3;spacingRight=-3;points=[];labelBackgroundColor=none;rounded=0;html=1;whiteSpace=wrap;" parent="PHe9VQBaEmlKpY5_7-fe-2" vertex="1">
          <mxGeometry x="11" width="43" height="43" as="geometry" />
        </mxCell>
        <mxCell id="PHe9VQBaEmlKpY5_7-fe-4" style="vsdxID=15;fillColor=#FFFFFF;gradientColor=none;shape=stencil(jVLtDoMgDHwa/hpot/kAzr2HmTjJnBj8mL79JNUhGBP/tfTau6NlmLRl1kgGvO2MfsuvyruS4Z0BqLqURnVzxDBlmBTayJfRfZ1T3mQWaaOPHuyEkfqu3LYAnygVnPIHYZ+9IbCgMkB0W/DCb+Aj0MM6b0njOLosAPQB6Ak4IOQ+m+Nf6TaKfAEjBgY9+gM6q1b4lIG9v99pJ2BldJBTFh1c7L4M9rJCHUc+g01Wqj699Tlw51KoqqJr29bD85qf6DQx/QE=);strokeColor=none;spacingTop=-3;spacingBottom=-3;spacingLeft=-3;spacingRight=-3;points=[];labelBackgroundColor=none;rounded=0;html=1;whiteSpace=wrap;" parent="PHe9VQBaEmlKpY5_7-fe-3" vertex="1">
          <mxGeometry x="1" y="1" width="41" height="41" as="geometry" />
        </mxCell>
        <mxCell id="PHe9VQBaEmlKpY5_7-fe-5" style="vsdxID=16;fillColor=#FFFFFF;gradientColor=none;shape=stencil(lVTLcsMgDPwargxGZmjOafofmcapmbp2hjgp/H3tAuWhwePehFixu7IsAsd7f751hLP7rKfP7ltd5p7AK+FcjX2n1bxEBE4EjtdJdx96eowXd76dV+QafU3P9QXj6gRbSziz7thScfhNvDnw+0M7dOPupaAcfEVTlDDDXeYgaNt4kE8tKCk9CjAKMjEV7rQAywnkqUKsx0BhG4mpkCcGLNYTyGMvLJYTuBPQLt8JHosxuMEWiam5Lr/2oMb9o7E5R5uGOKftS+6I5W5Y7iQpCFbYfzrIcjIpqeBF+xJJPtUwtt29AKj9KpElEMcnS46/cUmkQYnZ5TXCcbcNZrF5x2teM8rNMcmQSxAXz1UNg9tb6X25qJaUW3Jw+gE=);strokeColor=none;spacingTop=-3;spacingBottom=-3;spacingLeft=-3;spacingRight=-3;points=[];labelBackgroundColor=none;rounded=0;html=1;whiteSpace=wrap;" parent="PHe9VQBaEmlKpY5_7-fe-3" vertex="1">
          <mxGeometry width="43" height="43" as="geometry" />
        </mxCell>
        <mxCell id="PHe9VQBaEmlKpY5_7-fe-6" style="vsdxID=17;fillColor=none;gradientColor=none;strokeColor=none;spacingTop=-3;spacingBottom=-3;spacingLeft=-3;spacingRight=-3;points=[];labelBackgroundColor=none;rounded=0;html=1;whiteSpace=wrap;" parent="PHe9VQBaEmlKpY5_7-fe-2" vertex="1">
          <mxGeometry y="42" width="66" height="42" as="geometry" />
        </mxCell>
        <mxCell id="PHe9VQBaEmlKpY5_7-fe-7" style="vsdxID=18;fillColor=#FFFFFF;gradientColor=none;shape=stencil(nZTRcoMgEEW/hlcGdgPKc5r+R6YxlanVDDGt/fvqIMISY6Z9Y+Wwd6+7wHB/rY+XioG49q77qL7tqa8ZvjAA29aVs/24YnhguD93rnp33a09+fhynMhp9dl9TRkGf05MJ0D8+EgKH796tLHtQxQ1Vyn7dnM+r6T0HMqAiwGCFkc5Q0DODOhDAF4GAlNitTwwXBtS4gaMgpsdgWHbDiquIbME1NAupFj8yGIxPdevBPWzEA9kVVKnvEs6yyjg0jxVRh4KjuKb0oZjmTeRCmt110KZ9VAnWYIstUwbUyRT8bSLRRGNr8C5ozKZEDqlcSZFZkfn/zEiuH4RaIkR//MN+z86LuJ9P9um8c9Fup+/D+Mn/7bg4Rc=);strokeColor=none;spacingTop=-3;spacingBottom=-3;spacingLeft=-3;spacingRight=-3;points=[];labelBackgroundColor=none;rounded=0;html=1;whiteSpace=wrap;" parent="PHe9VQBaEmlKpY5_7-fe-6" vertex="1">
          <mxGeometry x="1" y="1" width="64" height="40" as="geometry" />
        </mxCell>
        <mxCell id="PHe9VQBaEmlKpY5_7-fe-8" style="vsdxID=19;fillColor=#FFFFFF;gradientColor=none;shape=stencil(pVbZcsMgDPwav2oQ4nzu8R+dNm08TZOOk15/X2fAWOAEkvbNllcIadcLHd3s1w/vq06K/WHYva6++qfDuqPbTsp+u14N/WF86uiuo5vn3bB6GXYf26fw/v5wRB6f3nafxxW+Q541QOaYJcVPiCiwIXAf8I8fQ0jA8N1ZcC5mYJEivmWIeAPeRlAMoQehI4qWqBgiC6h4+U2/ZdvlGTGiQdYSJCh5VQKCuyqBQNC/8IuWy4mzDEyz1DKfOEpAmU+c0RKnOy5lVD7wku58s9ID+ao8iuZEBjaAvtqZAqeL1jRYzFtTjJIYkgiK8t6Uh0JLM+hMeS3AY16eLxxr6YvKa8bSVH9cXlfrz1s+T6zRicb0KxE4zMtbkdeua9AKyDVYZ7VtEtfiWyYkqns3eCnYjKbjLwY7QJeBEXwFzowwEg7kanwbAj/9fhPhohCbAztteGI7cVkTGxowtio2ZhBY5nCxSyzqJ3+a6xdqw5aFqRMexpaNlWjez89sa3GmqThJsEXz6X84bUqs89NElSY220JTNEuHrIGZ/54Al1NDJnXk+DQxUUyLEUo54rLzNbfvxkmWg1FUGl8celX08gyuwxdnfB2+uENU4dPHP4EbEyzhzavAnHD+F3ZMkblM0mHB/Jaaom248/gwXy6f+80m3E359/IyOobCRZbufgE=);strokeColor=none;spacingTop=-3;spacingBottom=-3;spacingLeft=-3;spacingRight=-3;points=[];labelBackgroundColor=none;rounded=0;html=1;whiteSpace=wrap;" parent="PHe9VQBaEmlKpY5_7-fe-6" vertex="1">
          <mxGeometry width="66" height="42" as="geometry" />
        </mxCell>
        <mxCell id="PHe9VQBaEmlKpY5_7-fe-9" style="vsdxID=20;fillColor=none;gradientColor=none;strokeColor=none;spacingTop=-3;spacingBottom=-3;spacingLeft=-3;spacingRight=-3;points=[];labelBackgroundColor=none;rounded=0;html=1;whiteSpace=wrap;" parent="PHe9VQBaEmlKpY5_7-fe-1" vertex="1">
          <mxGeometry x="2" y="2" width="62" height="80" as="geometry" />
        </mxCell>
        <mxCell id="PHe9VQBaEmlKpY5_7-fe-10" style="vsdxID=21;fillColor=#2d5967;gradientColor=none;shape=stencil(jVTRbsMgDPwaXhGYZbTPXfsf1ZouaFlS0XQLf78gkmCMiPKGnXPuzrbM1OnZXB81A/EcbP9d/5nb0DD1wQBM19TWDNOLqTNTp3tv6y/bv7pbiB9Xj/Svn/7X/2EMdZXwJSBcCKUI8SVgP182gGX4rDXXh7lAphViBJJwkBWNimJUIqNAG+FzAoD7GNNiaXNKpKQV4dykRAwLKfFJXGJJKkXs8kgc4qblDI72uuSRzLM13e7Zb+7JgVfHzUUBrlXqaC1ZDR0lf5Oki5qDTi1h1K5O4oJczrovSGGup9TPCCntTTTgcj0LeeyFy+Us3Ai0yzfC52LWJXrnWqfUaDAF13Tam2tEwdMjHp+7adtwu/B3eqymVDh06vwP);strokeColor=none;spacingTop=-3;spacingBottom=-3;spacingLeft=-3;spacingRight=-3;points=[];labelBackgroundColor=none;rounded=0;html=1;whiteSpace=wrap;" parent="PHe9VQBaEmlKpY5_7-fe-9" vertex="1">
          <mxGeometry x="11" width="39" height="39" as="geometry" />
        </mxCell>
        <mxCell id="PHe9VQBaEmlKpY5_7-fe-11" style="vsdxID=22;fillColor=#2d5967;gradientColor=none;shape=stencil(pVXRdoIwDP0aXnPShBb67PQ/PBMnZ048qJv7+8FasU1VcHsr6U1z701KM54dNst9lREejm3zXn3Vq+Mm45eMqN5tqrY+dquM5xnP1k1bvbXNabdy3/tlj+xXH81nf8LZ5RUloOmzCL9dBH+/Fg68rXchWIHNJ4MRbBGBCZQK8a+n1lFRbt9oKJXP8CFFYNiFzuRCOmDsQ6oEqz2KPQo9hCXkTvE80KbSY30lzkFZUTyg6IuRBeS4vtQee0XPdIEed0EKUxirwlgRCjUaChurEU7ygLjJDiNmCh8I0ZCX/0AnRKTyIEMN1qHoaNc+0dB0mELHWYButyghOzZ+rMCoUbI5AlPMlgrg4vHsXyH3jLJgpFPBsb6SKYGFVYSgxewXOWh6xqv0DzTmVVmAsCq9qDagQamfnKKmjXeYMWFoL5t/Ao8O+DXhEjDDfAxGiAuOsQOh+9F9n9irCNwtru/Mut5u3TMV7st3qQu5N43nPw==);strokeColor=none;spacingTop=-3;spacingBottom=-3;spacingLeft=-3;spacingRight=-3;points=[];labelBackgroundColor=none;rounded=0;html=1;whiteSpace=wrap;" parent="PHe9VQBaEmlKpY5_7-fe-9" vertex="1">
          <mxGeometry y="42" width="62" height="38" as="geometry" />
        </mxCell>
        <mxCell id="PHe9VQBaEmlKpY5_7-fe-66" style="edgeStyle=orthogonalEdgeStyle;rounded=0;orthogonalLoop=1;jettySize=auto;html=1;entryX=0;entryY=0.524;entryDx=0;entryDy=0;entryPerimeter=0;" parent="PHe9VQBaEmlKpY5_7-fe-73" source="PHe9VQBaEmlKpY5_7-fe-9" target="PHe9VQBaEmlKpY5_7-fe-57" edge="1">
          <mxGeometry relative="1" as="geometry" />
        </mxCell>
        <mxCell id="PHe9VQBaEmlKpY5_7-fe-64" style="edgeStyle=orthogonalEdgeStyle;rounded=0;orthogonalLoop=1;jettySize=auto;html=1;entryX=-0.012;entryY=0.587;entryDx=0;entryDy=0;entryPerimeter=0;" parent="PHe9VQBaEmlKpY5_7-fe-73" source="PHe9VQBaEmlKpY5_7-fe-57" target="PHe9VQBaEmlKpY5_7-fe-47" edge="1">
          <mxGeometry relative="1" as="geometry" />
        </mxCell>
        <mxCell id="PHe9VQBaEmlKpY5_7-fe-63" style="edgeStyle=orthogonalEdgeStyle;rounded=0;orthogonalLoop=1;jettySize=auto;html=1;entryX=0.012;entryY=0.548;entryDx=0;entryDy=0;entryPerimeter=0;" parent="PHe9VQBaEmlKpY5_7-fe-73" source="PHe9VQBaEmlKpY5_7-fe-61" target="PHe9VQBaEmlKpY5_7-fe-29" edge="1">
          <mxGeometry relative="1" as="geometry" />
        </mxCell>
        <mxCell id="PHe9VQBaEmlKpY5_7-fe-41" value="" style="group" parent="PHe9VQBaEmlKpY5_7-fe-73" vertex="1" connectable="0">
          <mxGeometry x="513" y="390.0000000000002" width="84" height="130" as="geometry" />
        </mxCell>
        <mxCell id="PHe9VQBaEmlKpY5_7-fe-42" style="vsdxID=53;fillColor=none;gradientColor=none;strokeColor=none;spacingTop=-3;spacingBottom=-3;spacingLeft=-3;spacingRight=-3;points=[];labelBackgroundColor=none;rounded=0;html=1;whiteSpace=wrap;" parent="PHe9VQBaEmlKpY5_7-fe-41" vertex="1">
          <mxGeometry width="84" height="84" as="geometry" />
        </mxCell>
        <mxCell id="PHe9VQBaEmlKpY5_7-fe-43" style="vsdxID=54;fillColor=none;gradientColor=none;strokeColor=none;spacingTop=-3;spacingBottom=-3;spacingLeft=-3;spacingRight=-3;points=[];labelBackgroundColor=none;rounded=0;html=1;whiteSpace=wrap;" parent="PHe9VQBaEmlKpY5_7-fe-42" vertex="1">
          <mxGeometry width="84" height="84" as="geometry" />
        </mxCell>
        <mxCell id="PHe9VQBaEmlKpY5_7-fe-44" style="vsdxID=55;fillColor=#FFFFFF;gradientColor=none;shape=stencil(lZPRDoIwDEW/Zq9LWUHCs+J/EAVZRCATFP/eYYdsAzW+td2922mzMtxey6zNmYBrp5pzfpfHrmS4Y0LIusyV7HTEMGW4LRqVn1TT10fK22xUjtGluY03DOSLOEajScCDCknC482rsif9oVdkCEggeIjGEfgWGASVwChMmsQchVGgqzBpEvLQfrWStUUJDuKb+QMhuHgz8ERnteDyTnDWVBzcVTiNvnFnCN/o9Cyi2CUEFy8Ab3xWB+hLfOJVxFnuI3+AnA1L6kEsG/HJB1zOxkNfBf39Hf/V62D++4WsKlod+9zfFV2iPcP0CQ==);strokeColor=none;spacingTop=-3;spacingBottom=-3;spacingLeft=-3;spacingRight=-3;points=[];labelBackgroundColor=none;rounded=0;html=1;whiteSpace=wrap;" parent="PHe9VQBaEmlKpY5_7-fe-43" vertex="1">
          <mxGeometry x="1" y="1" width="82" height="82" as="geometry" />
        </mxCell>
        <mxCell id="PHe9VQBaEmlKpY5_7-fe-45" style="vsdxID=56;fillColor=#FFFFFF;gradientColor=none;shape=stencil(lZXRdoIwDIafprc9aUMpvXb6Hp6JgzMmHsSNvf1gLbQNCHpX4h/88iehDHe34njNmYRb29Sf+U95aguGb0zK8lLkTdn2J4Z7hrtz3eQfTX2/nOzz9Tgoh9NX/T28obN5BjmqIUvCr41Ijtl/4GD17/fGJgiXoXhiXIYgKdBJJ9IcR5ELJVy6SIdzkQulPMHwz6vyEsIGCRN+JlZpgxRfgFEEN6jJV5ClhDfwCqlqEbgvR8S8VE95e5c0wdU8lTFu77cmtIprEdMGIs+v9GPYIGG5GZQ1SBCzHstZPXI2LDhzCZdnkIzB5sy+qt/aCXihxbBuWaZiyyD2C6hZdAghdmp9YSAi21wWYHTyREInb+J3EQHANro5Sh41R8U7TeQLGy2Ih56BQgXbPJWCVPPcenj9c9thDNcp/U5O3Ry5Um5EjErsXPjorLu5Nrr9wV8E57Kq7D0S/k4vjj5kLx3c/wE=);strokeColor=none;spacingTop=-3;spacingBottom=-3;spacingLeft=-3;spacingRight=-3;points=[];labelBackgroundColor=none;rounded=0;html=1;whiteSpace=wrap;" parent="PHe9VQBaEmlKpY5_7-fe-43" vertex="1">
          <mxGeometry width="84" height="84" as="geometry" />
        </mxCell>
        <mxCell id="PHe9VQBaEmlKpY5_7-fe-46" style="vsdxID=57;fillColor=none;gradientColor=none;strokeColor=none;spacingTop=-3;spacingBottom=-3;spacingLeft=-3;spacingRight=-3;points=[];labelBackgroundColor=none;rounded=0;html=1;whiteSpace=wrap;" parent="PHe9VQBaEmlKpY5_7-fe-42" vertex="1">
          <mxGeometry x="2" y="2" width="80" height="80" as="geometry" />
        </mxCell>
        <mxCell id="PHe9VQBaEmlKpY5_7-fe-47" style="vsdxID=58;fillColor=#2d5967;gradientColor=none;shape=stencil(lZXLcoMwDEW/xlvGWDzidZr8R6YhhSmFDCEt+ftCbbAkB+Lu/LgyR/IVFrC/ladrIZS89V37WfxU574U8CaUqpqy6Kp+HAk4CNhf2q746Np7czbz62lSTqOv9ns6YTBxOo3SeIpS8mFW5N/saMR11SBxEqlkXft+78zJsdmMI62tOsZyOSgyfdipsrtAd2H5drpOJgmWzra4JIXSO0qFsOcVKSkaqgNQyVO4scZ5RgCZnBPqXSRjSukYONRMueQBXAAOY6OETv+84B6kno9bIBVF1LnLm175AL774KX9XniVGTtzNVzJ38so88puneRSSr2UxihbqK20nCqsszw9hwWvuzCImkV5wmkpKlKE2QQFhPkEBdiVhEPyhoPFWesdB5uUfstxfcDlIwx01+z6EwqKFUF/rgCf/jtgHLj//aWqa/Nc4H3+PoxL5m2Bwy8=);strokeColor=none;spacingTop=-3;spacingBottom=-3;spacingLeft=-3;spacingRight=-3;points=[];labelBackgroundColor=none;rounded=0;html=1;whiteSpace=wrap;" parent="PHe9VQBaEmlKpY5_7-fe-46" vertex="1">
          <mxGeometry width="80" height="80" as="geometry" />
        </mxCell>
        <mxCell id="PHe9VQBaEmlKpY5_7-fe-48" style="vsdxID=59;fillColor=#2d5967;gradientColor=none;shape=stencil(pZJbDsIgFERXwy+hQBW/a91Hk1IhIjQUX7sXcmNsNaWx/s1wz32EDGLVoJpeIkqG4N1J3nQbFGJ7RKm2SnodokKsRqzqnJdH7y62Bd83iUzq7K5pwh36SOqg5AGuIOAPgBptR+iruArOoCvB7PosOv0BjkUxpTdYlPOjdxyXf/GCY7qd57/u+ZVfuGeZj+Idl04bA2kb1z/jFZ8gmqx+Ag==);strokeColor=none;spacingTop=-3;spacingBottom=-3;spacingLeft=-3;spacingRight=-3;points=[];labelBackgroundColor=none;rounded=0;html=1;whiteSpace=wrap;" parent="PHe9VQBaEmlKpY5_7-fe-46" vertex="1">
          <mxGeometry x="11" y="51" width="58" height="17" as="geometry" />
        </mxCell>
        <mxCell id="PHe9VQBaEmlKpY5_7-fe-49" style="vsdxID=60;fillColor=#2d5967;gradientColor=none;shape=stencil(jVLRDoMgDPwaXg2UOeezc/9hJk4ypwZ107+fpCRClxnf2nLH9eCYzIa66BUDPoyme6qPLseaySsD0G2tjB7XismcyazqjHqYbmpL7PvCIm316t72hhl5MbcU4Au2gmN/Q+x9MggWeJwk0Vk4gggZfAYyWGAjgcNIinGDUxql6Z7yxnADgEheQmV/OzfioW5MZHfNWoUkFCVWiVF/JRkijtokJv2ng9+t6Iv/s0l+tdHt4QSsxRadSjcNJs8/p1FbRxhTmX8B);strokeColor=none;spacingTop=-3;spacingBottom=-3;spacingLeft=-3;spacingRight=-3;points=[];labelBackgroundColor=none;rounded=0;html=1;whiteSpace=wrap;" parent="PHe9VQBaEmlKpY5_7-fe-46" vertex="1">
          <mxGeometry x="57" y="58" width="4" height="4" as="geometry" />
        </mxCell>
        <mxCell id="PHe9VQBaEmlKpY5_7-fe-50" style="vsdxID=61;fillColor=#2d5967;gradientColor=none;shape=stencil(pZLbDsIgEES/Zl8JZW3E51r/o0mpEBEa2nr5e0Fi2qrpRd92Z8+QCRnArJFFLYDRpnX2JK6qbCXgHhhTRgqnWj8B5oBZZZ04OtuZMu51Ecgwne0lvHCLvh0nnAcXo/eo0Od2iLBWZgDT38CETqCv4yJ4VdoZePwPHEmyGcFBSSdyp2SL/xl65avhM9Jqw0ykBQY/9NWplNaxecP7e9W8FGuK+QM=);strokeColor=none;spacingTop=-3;spacingBottom=-3;spacingLeft=-3;spacingRight=-3;points=[];labelBackgroundColor=none;rounded=0;html=1;whiteSpace=wrap;" parent="PHe9VQBaEmlKpY5_7-fe-46" vertex="1">
          <mxGeometry x="11" y="11" width="17" height="17" as="geometry" />
        </mxCell>
        <mxCell id="PHe9VQBaEmlKpY5_7-fe-51" style="vsdxID=62;fillColor=#2d5967;gradientColor=none;shape=stencil(pZJJDoMwDEVP422UxGXYU3oPJEKJmhIUoMPtm8iqCnSE7vzj920r+oBZVxetAsm73tmDOuuyrwG3IKVuauV07yvAHDCrrFN7Z4emJN0WgQzV0Z7ChAv5BOfBI/mVNKkdoUY3I3QleN/wEp2vXwSvRac/kG6YTCZwikxEH2bHLI3/M4iIJfje8HzSYsOXk34w+OIRmkobQ5kb9+ch808UUMxv);strokeColor=none;spacingTop=-3;spacingBottom=-3;spacingLeft=-3;spacingRight=-3;points=[];labelBackgroundColor=none;rounded=0;html=1;whiteSpace=wrap;" parent="PHe9VQBaEmlKpY5_7-fe-46" vertex="1">
          <mxGeometry x="31" y="11" width="17" height="17" as="geometry" />
        </mxCell>
        <mxCell id="PHe9VQBaEmlKpY5_7-fe-52" style="vsdxID=63;fillColor=#2d5967;gradientColor=none;shape=stencil(pZLbDsIgEES/Zl8JZW3E51r/o0mpEBEa2nr5e0Fi2qrpRd92Z8+QCRnArJFFLYDRpnX2JK6qbCXgHhhTRgqnWj8B5oBZZZ04OtuZMu51Ecgwne0lvHCLvh0nnAcXo/eo0Od2iLBWZgDT38CETqCv4yJ4VdoZePwPHEmyGcFBSSdyp2SL/xl65avhM9Jqw0ykBQY/9NWplNaxecP7e9W8FGuK+QM=);strokeColor=none;spacingTop=-3;spacingBottom=-3;spacingLeft=-3;spacingRight=-3;points=[];labelBackgroundColor=none;rounded=0;html=1;whiteSpace=wrap;" parent="PHe9VQBaEmlKpY5_7-fe-46" vertex="1">
          <mxGeometry x="11" y="31" width="17" height="17" as="geometry" />
        </mxCell>
        <mxCell id="PHe9VQBaEmlKpY5_7-fe-53" style="vsdxID=64;fillColor=#2d5967;gradientColor=none;shape=stencil(pZJJDoMwDEVP422UxGXYU3oPJEKJmhIUoMPtm8iqCnSE7vzj920r+oBZVxetAsm73tmDOuuyrwG3IKVuauV07yvAHDCrrFN7Z4emJN0WgQzV0Z7ChAv5BOfBI/mVNKkdoUY3I3QleN/wEp2vXwSvRac/kG6YTCZwikxEH2bHLI3/M4iIJfje8HzSYsOXk34w+OIRmkobQ5kb9+ch808UUMxv);strokeColor=none;spacingTop=-3;spacingBottom=-3;spacingLeft=-3;spacingRight=-3;points=[];labelBackgroundColor=none;rounded=0;html=1;whiteSpace=wrap;" parent="PHe9VQBaEmlKpY5_7-fe-46" vertex="1">
          <mxGeometry x="31" y="31" width="17" height="17" as="geometry" />
        </mxCell>
        <mxCell id="PHe9VQBaEmlKpY5_7-fe-54" style="vsdxID=65;fillColor=#2d5967;gradientColor=none;shape=stencil(pZJJDoMwDEVP422UxGXYU3oPJEKJmhIUoMPtm8iqCnSE7vzj920r+oBZVxetAsm73tmDOuuyrwG3IKVuauV07yvAHDCrrFN7Z4emJN0WgQzV0Z7ChAv5BOfBI/mVNKkdoUY3I3QleN/wEp2vXwSvRac/kG6YTCZwikxEH2bHLI3/M4iIJfje8HzSYsOXk34w+OIRmkobQ5kb9+ch808UUMxv);strokeColor=none;spacingTop=-3;spacingBottom=-3;spacingLeft=-3;spacingRight=-3;points=[];labelBackgroundColor=none;rounded=0;html=1;whiteSpace=wrap;" parent="PHe9VQBaEmlKpY5_7-fe-46" vertex="1">
          <mxGeometry x="51" y="11" width="17" height="17" as="geometry" />
        </mxCell>
        <mxCell id="PHe9VQBaEmlKpY5_7-fe-55" style="vsdxID=66;fillColor=#2d5967;gradientColor=none;shape=stencil(pZJJDoMwDEVP422UxGXYU3oPJEKJmhIUoMPtm8iqCnSE7vzj920r+oBZVxetAsm73tmDOuuyrwG3IKVuauV07yvAHDCrrFN7Z4emJN0WgQzV0Z7ChAv5BOfBI/mVNKkdoUY3I3QleN/wEp2vXwSvRac/kG6YTCZwikxEH2bHLI3/M4iIJfje8HzSYsOXk34w+OIRmkobQ5kb9+ch808UUMxv);strokeColor=none;spacingTop=-3;spacingBottom=-3;spacingLeft=-3;spacingRight=-3;points=[];labelBackgroundColor=none;rounded=0;html=1;whiteSpace=wrap;" parent="PHe9VQBaEmlKpY5_7-fe-46" vertex="1">
          <mxGeometry x="51" y="31" width="17" height="17" as="geometry" />
        </mxCell>
        <mxCell id="PHe9VQBaEmlKpY5_7-fe-56" value="&lt;div style=&quot;&quot;&gt;&lt;p style=&quot;margin: 0px; text-indent: 0px; direction: ltr;&quot;&gt;&lt;font face=&quot;Oracle Sans&quot;&gt;&lt;span style=&quot;font-size: 16.93px;&quot;&gt;Backend (Java)&lt;/span&gt;&lt;/font&gt;&lt;/p&gt;&lt;/div&gt;" style="verticalAlign=middle;align=center;vsdxID=68;fillColor=none;gradientColor=none;shape=stencil(nZBLDoAgDERP0z3SIyjew0SURgSD+Lu9kMZoXLhwN9O+tukAlrNpJg1SzDH4QW/URgNYgZTkjA4UkwJUgGXng+6DX1zLfmoymdXo17xh5zmRJ6Q42BWCfc2oJfdAr+Yv+AP9Cb7OJ3H/2JG1HNGz/84klThPVCc=);strokeColor=none;spacingTop=-3;spacingBottom=-3;spacingLeft=-3;spacingRight=-3;points=[];labelBackgroundColor=none;rounded=0;html=1;whiteSpace=wrap;" parent="PHe9VQBaEmlKpY5_7-fe-41" vertex="1">
          <mxGeometry x="4" y="89" width="76" height="41" as="geometry" />
        </mxCell>
        <mxCell id="PHe9VQBaEmlKpY5_7-fe-13" style="vsdxID=125;fillColor=none;gradientColor=none;strokeColor=none;spacingTop=-3;spacingBottom=-3;spacingLeft=-3;spacingRight=-3;points=[];labelBackgroundColor=none;rounded=0;html=1;whiteSpace=wrap;" parent="PHe9VQBaEmlKpY5_7-fe-73" vertex="1">
          <mxGeometry x="730.0000000000005" y="472" width="84" height="80" as="geometry" />
        </mxCell>
        <mxCell id="PHe9VQBaEmlKpY5_7-fe-14" style="vsdxID=126;fillColor=none;gradientColor=none;strokeColor=none;spacingTop=-3;spacingBottom=-3;spacingLeft=-3;spacingRight=-3;points=[];labelBackgroundColor=none;rounded=0;html=1;whiteSpace=wrap;" parent="PHe9VQBaEmlKpY5_7-fe-13" vertex="1">
          <mxGeometry width="84" height="80" as="geometry" />
        </mxCell>
        <mxCell id="PHe9VQBaEmlKpY5_7-fe-15" style="vsdxID=127;fillColor=none;gradientColor=none;strokeColor=none;spacingTop=-3;spacingBottom=-3;spacingLeft=-3;spacingRight=-3;points=[];labelBackgroundColor=none;rounded=0;html=1;whiteSpace=wrap;" parent="PHe9VQBaEmlKpY5_7-fe-14" vertex="1">
          <mxGeometry width="42" height="80" as="geometry" />
        </mxCell>
        <mxCell id="PHe9VQBaEmlKpY5_7-fe-16" style="vsdxID=128;fillColor=#FFFFFF;gradientColor=none;shape=stencil(lZXJUsMwDEC/JleNLFleziz/0YFCM5SWSVuWv8fFSRqpkAw3R5bztKvhm8Nm9bZuCA/Hbv+y/mgfj5uGbxuidrdZd+2xnBq+a/jmad+tn7v9afdYv99WZ83z6XX/fv7DZ32XCAKdXxF+VYlD/Pm+r+oPp67qu3odIoRe3+kH+ElVIAw59zq9KAdwrtfiKvIBsBd99aKUgfIcnATY0FMEFs13CMyaH+Po5sCfavWiECDEOf70jRvfuLTIDwIhL/MFyM3xGaI3eAcYNR41WgSicR01VhAczWFRM70HYc2cGDZIMri46DELoP9nxLnglzNetDAs8xkk/ZNPBGwyXuoykea70lii+aXifdL88vs4m3FxEGzKQUzGpcRajPvgjPchjQEZ6eDDHDwSRNNuCD5reGmtbHxHTU4MmDVZjZhtu5tOpJI4PZFm51EmyGJtJG/rA2140lU7mq5Ig++/WnlR781wA/TPQjJdlEvNBG3m1JdBlMcUjOEs9W8G58LMLgkQE6OroT1Nko3aSJ4si9/JJpVLy6UcLovpqd1u616b3ttFVkR1CfLdNw==);strokeColor=none;spacingTop=-3;spacingBottom=-3;spacingLeft=-3;spacingRight=-3;points=[];labelBackgroundColor=none;rounded=0;html=1;whiteSpace=wrap;" parent="PHe9VQBaEmlKpY5_7-fe-15" vertex="1">
          <mxGeometry width="40" height="78" as="geometry" />
        </mxCell>
        <mxCell id="PHe9VQBaEmlKpY5_7-fe-17" style="vsdxID=129;fillColor=#FFFFFF;gradientColor=none;shape=stencil(lVfbUhsxDP2afdXYlq/PFP6DKaHJNCVMCG3691W665u8a4e3xUg51pF0JE/48LF/ft9NSnxczqefuz+Hl8t+wm+TUoe3/e58uNDXhI8TPryezrsf59Pn28v89/vzzfL29ev0+/YL19nPSzD65qXE3/lEAYb/B0+z/ffP8+wgk0cIi4dkLuKqWiPVGOFipEDjYoR3ggewegQeDBhVgxtwWIOXRvEIXAV+PLwVTJUOy4kA271t6RKPNDjDritAMK6CA28asrxn9/XRcYutgmDJfXq5Kq2wLZR78a0D44b4RkOwDF+DcjW+dom4iO+JJezhKw+eVYu3oGt4qUGzanEOkJVLabUcWQumG37pI5OPlEN8a5peWcPXYH03/SAZugD0NboGI2twQ+Cc+2y0nBgBUvWwC5d4osG7GjxfcDnAAN4OA0cD3bhXeCcXwSJf4R2JUTmGR/BfzbtCkKzty+LMV0q3jNQTR6HGlwqs6eEbBazrfKzU3HQBAk88aFZ01oNmmoNgutw71UieyjnN/SWwBl+ZDq3g8OlQC/R4lI1Gn+hGlto9RSZYWBKkr8MSicBrVg3r6rBkVOmtfDaNjMBEhPpRmxqahE7X0DpnOEEL6JYSFYVi6czllydYU0sqT540cLPRvY1UuMTAdRanTfCVNl4BT4qwAY5NukmdJBseokYmjbMsbFHDDoVT1JikxpblurhYTLVoZLMNmIaK7Oa6ZbucQ5tsk5F3Q/A09+4GL4dwrCpanliD0Q6AbFOiMhdMOGht7Ctmlue0qNjUzBG+bN2o2ELU4CuqFW3u36fzr8Yoi0VuE7ldEAfIgfSRrUeBdmAm1gkoLWckIyzh2SZWgABV5buW6mwfs+/6E1WwtqD1gtVGGUwSX6UbjviL46u54Zlpl+dxRYhtZgZDiT7yS+71cDzOD8Hy//zlR0fzqxEf/wE=);strokeColor=none;spacingTop=-3;spacingBottom=-3;spacingLeft=-3;spacingRight=-3;points=[];labelBackgroundColor=none;rounded=0;html=1;whiteSpace=wrap;" parent="PHe9VQBaEmlKpY5_7-fe-15" vertex="1">
          <mxGeometry width="42" height="80" as="geometry" />
        </mxCell>
        <mxCell id="PHe9VQBaEmlKpY5_7-fe-18" style="vsdxID=130;fillColor=none;gradientColor=none;strokeColor=none;spacingTop=-3;spacingBottom=-3;spacingLeft=-3;spacingRight=-3;points=[];labelBackgroundColor=none;rounded=0;html=1;whiteSpace=wrap;" parent="PHe9VQBaEmlKpY5_7-fe-14" vertex="1">
          <mxGeometry x="41" width="42" height="80" as="geometry" />
        </mxCell>
        <mxCell id="PHe9VQBaEmlKpY5_7-fe-19" style="vsdxID=131;fillColor=#FFFFFF;gradientColor=none;shape=stencil(lZVLcsIwDIZPk61G8kOO17S9B1OgZEqBCdDC7evUiWMZSKY7W5Hy/ZEUqdKL03Z5XFcKT+f28Ln+aVbnbaVfKqWa/XbdNudwqvRrpRebQ7v+aA+X/Srej8vOszt9Hb67N1xjHFmwrotSeIsW78Hxn+UtBrxf2hhB0YHB+j6CUoilaLqqaMLeo796CzX3Hlp69FdPOXPX7DORKATWM/pQijNARmpzgCzlISgj1REDGqkQnwsM3l5mEacUKgXEUiVKiSHJdV1qNF5q1AQsJRKYydQYBFuAdZIysE0NRJLNoLVkWw26YCM4moI7A2glnBSwlfTaAytJ79JVlCf3GrKhwdZT/Dxm+HiTWmGCH7ysnefboWOe8D2nLkt8D+Qkn7D4dUygF8kffYZqIJCaYo8RvcFacEqSc31D3QnQzX45W1CTlX+Q+RDDvprLPDNQPc9nYPdPvnPjQFL3/TlIcmnWZY3vir8uvF5P/nUh10XhQ66pmJhapVzfyl7IplKaM0UvPCt8mNYFOs33seeyYafuvQZStip06fV4LM4vl3AYV9Om2e3iZsufl6ssmOIa1K+/);strokeColor=none;spacingTop=-3;spacingBottom=-3;spacingLeft=-3;spacingRight=-3;points=[];labelBackgroundColor=none;rounded=0;html=1;whiteSpace=wrap;" parent="PHe9VQBaEmlKpY5_7-fe-18" vertex="1">
          <mxGeometry width="40" height="78" as="geometry" />
        </mxCell>
        <mxCell id="PHe9VQBaEmlKpY5_7-fe-20" style="vsdxID=132;fillColor=#FFFFFF;gradientColor=none;shape=stencil(lZfddtowDICfJrc6tuWf+Lrr3qNnpYMzBj2UbvD2FU3sWDLYcBeElE+WZEkZ8Olj/fK+Goz6OB72f1b/N6/H9YA/BmM2u/XqsDnS04DPAz697Q+r34f95+51+v3+ctG8PP3d/7u84TTZ6RGsv1gZdZ4kBnD8Fvyc9H99HiYDPf9vIIbZQgsTdTKzJICdReckgtHNSjhJUEOMs1ISQZNtFajI2S77n9g2AHL0CE6gnQHjOFqTg9iCBw3ac7i2+TWJPnpQAk+nMiPnl1rp6JjieoNf2switODHLh8daNfnOxib/EhptoIfIXJ8dBAtx1sLY+T4UitlRIE2TXxhk3LvskeZXzg5i7wCxO7xvQV8NPzegeqHn7Sc7/M9mEf5wUMwnE9F6mX1Owh1+QeOH+nC6ubVo7OK8EcEFNWPBqzAR7qOIv1l00GpdYNPNkoLfvHmGaYDuNDnh1Rr9/Op0mu8Fse3VdeLFpRIfqGU4NTWWO1vN7uiRxcGyZdgm7laDHKXDCJQdCk8d9WA11WcnKiT3nS4kqZ6OpT5N5XS7SKRcB6m/ijrjT714MlUt/hUN6BNZgAvJo4CIzqe4kRbzRrFgbJ4eBAVCwgVpvEtBxX3jnq0FTeyOEK6EuSBr+IiL6RW7WwUkdTcoiyznDEjdW5XWYdMcxqxQ7Y+LzvnYjCKUzubRbkNx7Sq3KoIB8Zw+tK6lylY7EkpDyF35hPWWvdOoVhvYH4ZTA3+lSl4jU8Tvb0F+HzYzNegRB/OCUl02hRGw+mLzrKBYLPYF4vUZ4vNxtT+pZkY74k8rV+dAVRHnta/KOb/lciXS2KDT43jQfxlpReXvajOlAqsBiDVvdOcTuMoNpdvmy/Gkvcq+FaDPHtVdOX1TXBoBp4+H1LtLF3YinlKJJn3fqdhfaY3zJgyPSxfdG+b7Xb6ICz/l1+AJJq+HvH5Cw==);strokeColor=none;spacingTop=-3;spacingBottom=-3;spacingLeft=-3;spacingRight=-3;points=[];labelBackgroundColor=none;rounded=0;html=1;whiteSpace=wrap;" parent="PHe9VQBaEmlKpY5_7-fe-18" vertex="1">
          <mxGeometry width="42" height="80" as="geometry" />
        </mxCell>
        <mxCell id="PHe9VQBaEmlKpY5_7-fe-21" style="vsdxID=133;fillColor=none;gradientColor=none;strokeColor=none;spacingTop=-3;spacingBottom=-3;spacingLeft=-3;spacingRight=-3;points=[];labelBackgroundColor=none;rounded=0;html=1;whiteSpace=wrap;" parent="PHe9VQBaEmlKpY5_7-fe-13" vertex="1">
          <mxGeometry x="1" y="1" width="80" height="77" as="geometry" />
        </mxCell>
        <mxCell id="PHe9VQBaEmlKpY5_7-fe-22" style="vsdxID=134;fillColor=#2d5967;gradientColor=none;shape=stencil(lVrZdhwpDP2afuWwL89Z/iMnccZ9xrFzOs7294OnCxBXFFS9dWPBRULSldS+mHc/Hj99f7ho+eP19vLvw+/rl9fHi3l/0fr6/Phwu77mTxfz4WLefX25Pfxze/n5/OX+/funN8m3T99efr2d8Oe+Lzrh9dsuLf/eV+T/3z7ehT//vN2l1SYuhYqbuKLy8o++fw1O6HLgtiSF22TMfcEnEcop25LaZHZwvRQRcI3Qrod2WiTXQ3uEtkE4BdBqhpyPCLZHVloAspLC9sDFBgWXSGwrpiqwg0y2FJXtCtZYVHgA7BbAppmxrCRmbNkDWwYse1Q39SvZ4zmHFjb8aaUIXNeYeli/MnHdUDzNtWM1lyrgvhlkAh5OgpeoKMjU+balGA64dEyLJ84GtqbHTr7HzkGqQWslZQ8drfDgXUVmL4E4oQC4naqrTM1Ju8heKIzjOXKyQkI8pTR4a3DsxFJIE9kWkgZrP12fSYpt8tsjF9Bdv4BoMBgMKa9ANKB5iAm7eBzecEECK8bIlp172+DR2x767FVKc6l9l1viBy1CWOJ7JUwAfJ5jcuQksGycPL6zwrrOWtHA+8MGJWycb2D5OpvE9+pFA4lENcZtRI26UalDKYxuKPnTM8MOwL3DqNI5iAJgWzExVN4QfGcobybSsrnAJq2nQWiFARJ08QgzuBEDIzHMyXBADJYRIr1g4WDFooWqXeg/nrGpCVNp3dvUuHkZN/AXUrHsu4sxR3zVmJPYmieBrIECsyrPkwAJUlOlZiTA88BqA8kz24Y5oycBPqMUT3FOREixEd01NFsX3aY5IAShVY/MU0BUQmEJ1cMO8rqfwQ44BQqYAZ8gJmfJOWYQHlUFzCR8DxkAsgmUlX0fIMIQLENxb0S0Z+RVa6pqnM3bMC0iMI1hzVC+BmYmwzMTlSrxKxc8TvfU9qwHd15Y1ooxcAxejRUco9gkHIQXPVZXW3ioIDRnWSp1VHO6pyVOpCN6y7IUl8o3kR1wm1MLKE+PLZZXIgUEh7SZuzjwfhNmHuqCSCXgmorTNBg5d0J7kRtHA1aykvsnCQ6DUnvRqvrLnt8wtwYrDVF+8HIQL5bRrc0xDznLaiSF/EzYblWhPb7N5RJgs1QxoHoLOXrA806erjIcArfL6eo4a52r0J69iS0VO1fXR5EKwFmTOagwnJk5B3ems/JeTslCIlmg/KAisciWEo1BI3x/sJPtk0xvDa/m5ZNpPFC5a35dYvFKd+zlcAil2F0H45gmtU8vaCnFs7tus9dWz2HeolJk3LpiF5zqhkFp3C5ZaptwRPuwGnjQUlfxk3V9v4i1FR8PUKmj6g+qGs+iNgvhdMCzURwdIZQlvyjZakVTn/Rc1J6UT4swoDvKrIQNoGghPBnV8PKajWpWgyi2oR9GUXcrvjzTLvfREroGg0FuhMQ6RoGTE5FCUysno3saQyI1kOsVpjoy79XrOgArOHLufgHHu0MqdFR1ukeBRTW/oIZ32Ve7f+velVaeAX6khOtHGfMRDZVvWg4yJtbjjjcjozpj2Y/wkZ871I843okN+pG58oNmxPLZGL2irm/CmqFBYbnii0EzZjlf0CfS/JaGSw2VB69a+EnvVdTxD3LRIFbCOlbCOlbC2bxYz9zPi2GdF5cKD/IiJ99BXuTkOyq8zudFfyQv+iN5kanOurmVc+QP7Xf7r9enp/vP/vTv+Dt/Xrr/j4D58B8=);strokeColor=none;spacingTop=-3;spacingBottom=-3;spacingLeft=-3;spacingRight=-3;points=[];labelBackgroundColor=none;rounded=0;html=1;whiteSpace=wrap;" parent="PHe9VQBaEmlKpY5_7-fe-21" vertex="1">
          <mxGeometry width="38" height="76" as="geometry" />
        </mxCell>
        <mxCell id="PHe9VQBaEmlKpY5_7-fe-23" style="vsdxID=135;fillColor=#2d5967;gradientColor=none;shape=stencil(lVrbchs3DP0avWJIgpflc5r+R6Zxak1dO+M4rf33wUZLEgRvqzeJBnhIAAcXWhf89OPxy/eHi1E/3l5f/nn4//r17fGCf1yMuT4/Prxe3+jTBT9f8NO3l9eHv19ffj5/vX3//mWX3D/9+/LfvsP7TU8rtesY9XH77hRo83vlz5v4Xz9fb/JaKhwL1oK3t6V3c1uKHlQ4pI4ljJCE8LayRdD+EDqW0KWlATjXOZbQgtU1PJdK8AjRrPERdLgT32iIrsYPCBhrfG3AhhrfGTC2xtcK4hTfBsAa3kPAGn23tBG3BxtrcFSgnAAHN4M25BtbYysQF9cRgoBWNa62gLrGVTNUX+6i6w3r/cc3VTVaSPY6AJ+uz4wNNRcieWjqDsEECnsnQtFB1PUJI9nICaMghHgRkTA1Czej5GV2hi27GimTYByY7S5kChznF8iUEdCJW1NG0DV2J/6JXsdxBujBFHsmSpJHN8H/DfxW44ctESfTnwkdSz6AmsJznRSg5PM1vHewyfTXwXeg4gyf59WEr2CTLFSCFM6BF8YvMskbMu/XxFiWibqqhJDveyh4C256t91DMre5pFNSK5My2QMofMulzvq2gx/Ia4LP+5EEoTcEJXxrNwihxt8yx7v2tQXq45wC49ihQFyeWhg3iOKGUYMy9Q0pQzoRvdGWvFYSh7xhkRolLZZsdLuzaaUm+LZJmWt8U2w8wdeAooZFBCeaBy6V8E2S6jOIacjw7iqgz43FSQXmX5mcRiERmpDwoUloJGVtbRK/wSZIx6US6WKSGuNb0VQEC8rX+J16sieYtp4E4ZIiNWovdMq4BT+0pCcryXpSCvA7tlJn7891StJD0U7zU5alzS3vX6QG+JTGUzPyodudk/1ZOkv4Jh8pJz0Pm8Q304C1RMjUS+RqNu3/LR1O+ItUhLusAhGtLjbW4mRBKXWSwPcr0IXDxB7MzgOFEw6kar8JAjkPXhDIhSKVvIWlu0ApNaqauiEw33lctR0RSOB3qrYlC99btamUouwadJPAKJLi8vpZaGR9Zlfd7JtuqsGIy1vMYTxpGXZCVZdfhdfdCjQq+kkA80lyoNAQVKUjlAE96xSGGsDl+wAZCcWIupN2Qp8yHJcKOk3/FF5G+G+vSHKGax1IUl5Er0MwYrItUuPy46S12M6l1lqR/tHmd4gcvkzqWDIxjRgjfKbDxnwRwPyUqUnUIF8z2utnoZH1bRkSdLNvsXQUxudHxFbq7OU7vQ8Nt/mVyOSQa15TdPOWxJmSlkyS6nOLdT7HCk4VOuy9VyE3G6MGmWnk95comkHeRZdHDuGPzrtCFhpPB0HMtmxf0wqNwT0Yfyc4e7gaghtsqqjPmSGBk5GVoKFfmH1/wRQspKATZueJtUwqRsQhp1SZlGKVhFaD524+PVFompRGoUkzbGjWWSeumwRjG6Z3moSGaSeaBOKOD0t8/rbMRgphYXRJqmsw0hCTelOXhEIsBympamphmv1l/FIjokXZ7byL82Zp/C6+bMM67+K8wTPtKRN7N5BdYGzfbuQYszIwzR2Hk0YKq9epuxXq9y8+ix0KYTGKu1LVJqM4Nde6HcWzFLZSZ0dRrlOaeyVIwk+ZeGOK1GQUz1LjScaIEOI7l1FUvg7xU2Irdfb+XEe3ljXtKU3rpckoLv1fR9iJgBERRsSpk8TyP3dcpVx6EzfcR3BR36mx3sQNe8NSWCSJThngOxdzym6XnxJbqdELduexRdZZau1RRFjnhdeVcWU2K2epET6zrG53Nq2XTHtKbKXOveCfCJg6wjghjnIcU8d8nkOm/JtjwiHqmvyaQ0XqfA7lO49zKD/lOIcu79/JoTQs6HUOpRZGr3NokTqfQ/nO4xzKTznOoc39m85wFTD0ofwQ4dv16en2Owb+d/nDBVq6/egBP/8C);strokeColor=none;spacingTop=-3;spacingBottom=-3;spacingLeft=-3;spacingRight=-3;points=[];labelBackgroundColor=none;rounded=0;html=1;whiteSpace=wrap;" parent="PHe9VQBaEmlKpY5_7-fe-21" vertex="1">
          <mxGeometry x="41" width="39" height="77" as="geometry" />
        </mxCell>
        <mxCell id="PHe9VQBaEmlKpY5_7-fe-62" value="&lt;div style=&quot;font-size: 1px&quot;&gt;&lt;p style=&quot;align:center;margin-left:0;margin-right:0;margin-top:0px;margin-bottom:0px;text-indent:0;valign:middle;direction:ltr;&quot;&gt;&lt;font style=&quot;font-size:16.93px;font-family:Oracle Sans;color:#000000;direction:ltr;letter-spacing:0px;line-height:120%;opacity:1&quot;&gt;Load Balancer&lt;/font&gt;&lt;/p&gt;&lt;/div&gt;" style="verticalAlign=middle;align=center;vsdxID=27;fillColor=none;gradientColor=none;shape=stencil(nZBLDoAgDERP0z3SIyjew0SURgSD+Lu9kMZoXLhwN9O+tukAlrNpJg1SzDH4QW/URgNYgZTkjA4UkwJUgGXng+6DX1zLfmoymdXo17xh5zmRJ6Q42BWCfc2oJfdAr+Yv+AP9Cb7OJ3H/2JG1HNGz/84klThPVCc=);strokeColor=none;spacingTop=-3;spacingBottom=-3;spacingLeft=-3;spacingRight=-3;points=[];labelBackgroundColor=none;rounded=0;html=1;whiteSpace=wrap;" parent="PHe9VQBaEmlKpY5_7-fe-73" vertex="1">
          <mxGeometry x="270" y="359" width="102" height="40" as="geometry" />
        </mxCell>
        <mxCell id="PHe9VQBaEmlKpY5_7-fe-12" value="&lt;div style=&quot;font-size: 1px&quot;&gt;&lt;p style=&quot;align:center;margin-left:0;margin-right:0;margin-top:0px;margin-bottom:0px;text-indent:0;valign:middle;direction:ltr;&quot;&gt;&lt;font style=&quot;font-size:16.93px;font-family:Oracle Sans;color:#000000;direction:ltr;letter-spacing:0px;line-height:120%;opacity:1&quot;&gt;User&lt;br/&gt;&lt;/font&gt;&lt;/p&gt;&lt;/div&gt;" style="verticalAlign=middle;align=center;vsdxID=24;fillColor=none;gradientColor=none;shape=stencil(nZBLDoAgDERP0z3SIyjew0SURgSD+Lu9kMZoXLhwN9O+tukAlrNpJg1SzDH4QW/URgNYgZTkjA4UkwJUgGXng+6DX1zLfmoymdXo17xh5zmRJ6Q42BWCfc2oJfdAr+Yv+AP9Cb7OJ3H/2JG1HNGz/84klThPVCc=);strokeColor=none;spacingTop=-3;spacingBottom=-3;spacingLeft=-3;spacingRight=-3;points=[];labelBackgroundColor=none;rounded=0;html=1;whiteSpace=wrap;" parent="PHe9VQBaEmlKpY5_7-fe-73" vertex="1">
          <mxGeometry x="123" y="361" width="40" height="20" as="geometry" />
        </mxCell>
        <mxCell id="PHe9VQBaEmlKpY5_7-fe-24" value="&lt;div style=&quot;font-size: 1px&quot;&gt;&lt;p style=&quot;align:center;margin-left:0;margin-right:0;margin-top:0px;margin-bottom:0px;text-indent:0;valign:middle;direction:ltr;&quot;&gt;&lt;font style=&quot;font-size:16.93px;font-family:Oracle Sans;color:#000000;direction:ltr;letter-spacing:0px;line-height:120%;opacity:1&quot;&gt;Gen AI&lt;/font&gt;&lt;/p&gt;&lt;/div&gt;" style="verticalAlign=middle;align=center;vsdxID=137;fillColor=none;gradientColor=none;shape=stencil(nZBLDoAgDERP0z3SIyjew0SURgSD+Lu9kMZoXLhwN9O+tukAlrNpJg1SzDH4QW/URgNYgZTkjA4UkwJUgGXng+6DX1zLfmoymdXo17xh5zmRJ6Q42BWCfc2oJfdAr+Yv+AP9Cb7OJ3H/2JG1HNGz/84klThPVCc=);strokeColor=none;spacingTop=-3;spacingBottom=-3;spacingLeft=-3;spacingRight=-3;points=[];labelBackgroundColor=none;rounded=0;html=1;whiteSpace=wrap;" parent="PHe9VQBaEmlKpY5_7-fe-73" vertex="1">
          <mxGeometry x="730.0000000000005" y="557" width="86" height="36" as="geometry" />
        </mxCell>
        <mxCell id="PHe9VQBaEmlKpY5_7-fe-93" value="&lt;b&gt;&lt;font style=&quot;font-size: 14px;&quot;&gt;Ansible&lt;/font&gt;&lt;/b&gt;" style="text;html=1;align=center;verticalAlign=middle;resizable=0;points=[];autosize=1;strokeColor=none;fillColor=none;" parent="PHe9VQBaEmlKpY5_7-fe-73" vertex="1">
          <mxGeometry x="595" y="351" width="70" height="30" as="geometry" />
        </mxCell>
        <mxCell id="9SlJUzElj-oROItGfegS-1" style="vsdxID=4;fillColor=none;gradientColor=none;strokeColor=none;spacingTop=-3;spacingBottom=-3;spacingLeft=-3;spacingRight=-3;points=[];labelBackgroundColor=none;rounded=0;html=1;whiteSpace=wrap;" vertex="1" parent="PHe9VQBaEmlKpY5_7-fe-73">
          <mxGeometry x="730" y="352" width="84" height="79" as="geometry" />
        </mxCell>
        <mxCell id="9SlJUzElj-oROItGfegS-2" style="vsdxID=5;fillColor=#FFFFFF;gradientColor=none;shape=stencil(pZjbUtwwEES/Zl+ndL88E/gPKixhK4SlFkjI36cdW5LVxqJSeVvMSEeWpntGPtirl4fb5+PBqJfXy/n78dfp7vXhYL8cjDk9PRwvp1f8Otjrg726P1+O3y7nt6e7+e/n2yly+vXj/HOa4X0e57KkMI0y6vf8RCv19++bOfzx9LQO9xLsKPzr22WeXi8DlGS/DFgeZSCXOd7N/MgGKbOaGmSWdb3bJUhL1EvU8iinZdwO3SqxhuipR5sk2RE7CqFNfVLJUbQeoU0QR+Qg0RDci/EED6IT0Z3oSHgvfoy3wi/uRXnCG7GB8K7uWMVj3x3hrdg8xGvRlvhGXCS+khiJr8vMjY8owquSHB8m6WrA/MC7ss0fxqt/Cm4ntsQr8WG0F/g/KcAFMaQALSn3O+GMKEpD5IHvd8ImcUMFIAt1D7dOku7huSRThUNryfdwbTd0DEx+RMcYVj/GOFKBdhJIglAliUD7jQgQpMZ43xyj4KPwzgdRieih7GrDh+pHFQ8NDumh+lylmzZxwSehvdc4Dkf0LJnoOor6TIKJXn610VWCyHbmmyKfqsAg2RJeixu+Pc7ZRMLDjckBpjwjA2jZWXLcNZcqBiBx+O4Yktl+JAZi+03ar4IKfJUdO/DeHzAg9AX108XGmhRtsVSloHPDSw2UJIjJhpe6mPkeus1S0Jgk92yUcEOHlMRTkUBQIngsy9lrDVBEKEG9kDO5VkVLwlYlVHR1oZadEuII7VEdc49Wre4sJI+sp/dWPTnA2nNPrma/58crvRVZFCFXcohbQ6xFpMCjkkDtUHX2HXi04kmTsRWZhRS9ZCrKEK6iZItxQ4fZu2GiR/j11pEsNSWI8lQKdcuLgs8td1qBCEN8wluQziZXJ6UhKlFPhKhAPUlCT8Q5B7tPQz6aPRIbTJwMMaWNKcH8LaX81CX19Nak7dDR2FUjKxbtSg/bOoFNI44M0XT26H0jpT0abT9U3NTPEx4mrQhfLhOtD4kbR56uD0R3WvywC8KYSImPm4zll0+tYBf/yW2Nq86f2mGPPrrb/L4kYFNN8cbaY2q7PwDZrf5zAFpkNTyQmDdixJhSQFZiTFwj9eZIEOX4hmBKiRiYAR0JbhWsRtiM55uhrRe2yq/Sa3xXlrTHD23NTSKM95sSgGuUpt4wlkZwfT0bt+WTeRuip839KGiufkhkR80ZylS94zaJxKEVTXccoufaMdX6p1vzzvpc115uTIffDz773IAf7VPF/enxcf7Ssf4/f9rAo/mziL3+Aw==);strokeColor=none;spacingTop=-3;spacingBottom=-3;spacingLeft=-3;spacingRight=-3;points=[];labelBackgroundColor=none;rounded=0;html=1;whiteSpace=wrap;" vertex="1" parent="9SlJUzElj-oROItGfegS-1">
          <mxGeometry x="1" width="82" height="78" as="geometry" />
        </mxCell>
        <mxCell id="9SlJUzElj-oROItGfegS-3" style="vsdxID=6;fillColor=#FFFFFF;gradientColor=none;shape=stencil(nVrLchw3DPwaXVF8kzg7zn+4YjlWRZFcsp1Ifx9MdglwmjsclW+rEbA9JIFGA9y7+OH710/f7u+C+/7j5fmv+38fPv/4ehd/uwvh4enr/cvDD/l0Fz/exQ9fnl/u/3x5/vn0+fL3t0+b5fbp7+d/tm94vfjlSiFtXsG9XZ4ESv7/B79f7P/4+XJx8Jf/F0++e/juEvny5DVcjRJxvRpdH0XK8WoUr0aNwtXv7fooU12CV0/F78ErNQCviULbg3tPzu/Ra9FHHd0nqmEJXyi1PbzXVzb8Sr4AfqHcAL8Sw+q9HEZd4jdqAfDlazLgM1UG/EYJdr85arj+RmWJ3yIhPFMA+JYpwdkHZ1YdvlLOe/ggh7vcfg62sT305Mj28JwpAzpThsPnQrD3MZPjJXijuMdOrm+XgVcqgJ6KhqyiK5YFvqfdzj8+PA1ZyklXcM3SHKjlYwcJLk2tX3Ro3LPoKBjFBU5DfDjMybDfEHaU05SLGtd9jzytmaDot3R0cSkF0IuRVbAgglis2U4tqlVeU0E2krHwbJiKiRpQEUd9JcVPlArgR0pLeGcuXqOqtj18CRMNS4S6uofPhUIE+Hqy/ByNvbz6YDpIVLc84VdIh8RKYQP+vhDsozVlan31Bw74wslTxHiRRUK8RAnEOG8YvHC0gvdmhOKW1BmlAmG8zAcmVFUxXnIvyIofmtFBx099Dw/wpU4m4O6NVeDAQqGIAZOmgJEyrVZDvC7XL0SdMWAkE4AtRCUw0kXQQqH40dZidHE9uCP8oNQ08AVUbjEqAeDn0iVWSj29mjHFBbuOHu+i42DB+k77BHSv/HC0H1TrfjukUKlG6LWLHGxHCrOM01PUWsqdYo90BAU4Cym/FXLRe6wcEZBFr6kc69DitIwDb+mk2FLHYeF+oERLTa1tUa0a5IFYueXSRa9lwJft8MADm6oDCRlMVSq+OSp+6TRzhN+IUb4HY7gOZnp5kJAR6tYWH1A4/JmCl2W4vMf30Rgm6JE0qNsSDgXOP4r4g8LhzzSkBFqAwDcfw5cCM8PD8UuxiOEEfp+m4sH7PD1/30o8vy7IjNhuvG6ChkOysuBpnWWLSNyEu+WUOZQm/JQtYhXgtMQKs4U7tR/BRyvH2u5FiFXhrQCxmifBn5opkf7oRN+KeIFAjRq6KnBS533LU61Nqq+GHjuq0ULenDflZ02868R9tLY0ZaHTXNbFOW2t++Lk7PFUB6bSxa0pSNSbi7izKe3BpdAAAeRpY5ObhGvt+uEondi6Xi1GEdmHNcg6eJsWLjmH5CPUuly4uHjUQJYmHVxk9B5b3gaIf+SRCEZHxAMCBO1v8CRnfNdOdwNNYvgPRscsfQoeyE/YKFXZir9iM0q1odoY562V+kYMEJ5+nnBJhaxYodKk1D1Pja2IBl4u3ttEa5iyZNj6baKEU5ZZm0k5ZlQIub/4sULCIZOoioTqzDh2VCiokLKW9jc7kuX2yy4WFChNa/ar7bUDbrqRoz5a+XqvQGMVokpOWiWtsbYxZE+FNMmzZCzSU6H2ccChKncQ+Mkmnq9KwgUib+uHeQ/urIPoZcj11LxJEc605NU+rEZSbm+be87cbk+cUtivOpyOo8RlanAdQdSKkcZ2Jw2TJcoaXtNtmAets1aOLiBnpUkvSKHzSFpJW95BV2PkbFOAdX+ftXtTfBt+Df09Bq5Y4UBmm6lD8HDt33WEz5bpw3xl1vUJq1tVitKK4efyJlV6qVS3CofrZ51pDkp1mgeyLlYTN1tz3JnEuRW6qCCs7N3DsBsWdjM5noSdAOeZMSbgnG7Ic0DOZR5p6TXC0U1QmEewbCWwj0BnFbkdJt7GZL0gGUJ+rRK24S6mnNQbCPl6I+STTSrtNgZH8mIV1vh16k44TjPQ2lTbDiMtYOvtYgcnwOFEw1cL73GiNV8GKZfZSMvj8tmyx0Zafnf8cGEweLyL0uVotAN7n8Nw2XZ1iH2cfdvBRtvD1Gy5h2yNc89kJgggHhSB1Vuo9RuLQPwK16xvEzUJVWhYQA3gAWRe1F0w9DpJ7I1pl4TNZZK5Uh0YslcCmrHBjXq9qPjeMtFqaFzPANt0fbTNpvbwLdnU1kZjHuCbtzbEVHZcLr85u/Px6oNzOIlyxqtUi+Mhe3AeLVZxSZ5jxpvynW7PGnbBYoRjUDFCkS3Ctyx3f+POqb3LSJ2zWtHxoo1/mTD0Tm6RS556cK+xoArbT/0Nlqx5rIJjj7OxCtrLB/uhxJeHx8fL7yzG/+MPK+TR5UcZ8eN/);strokeColor=none;spacingTop=-3;spacingBottom=-3;spacingLeft=-3;spacingRight=-3;points=[];labelBackgroundColor=none;rounded=0;html=1;whiteSpace=wrap;" vertex="1" parent="9SlJUzElj-oROItGfegS-1">
          <mxGeometry width="84" height="79" as="geometry" />
        </mxCell>
        <mxCell id="9SlJUzElj-oROItGfegS-4" style="vsdxID=7;fillColor=#2d5967;gradientColor=none;shape=stencil(nVjbchwnEP2afe0Cumng2XH+wxXL1lYUybWWk/Xfu6d2gOWgQUneVgjmDHSfC3PiD98fP317OAX3/fXy8ufDP+fPr48n/u0Uwvn58eFyfrVfJ/544g9fXi4PXy8vP54/3/7+9mmbuf366+Xv7QnX27qcKZVtVXA/byOcyd1Gfr8t+OPH5bbC70uUNOxL9iGOxOk2dA37LKEQ91n7EDPxjnXlfZanpPusfYgDBVniO9IC+PYYwE+lz6r4jnIY8VNuQxU/FBJd4adEJY74IZP3gJ+m/QclzoCvlCLgC4lf4suE7xM53H8gryO+t/3D+auVf4RXinmFrrGWp++eAoCrnzbvRuCYyOcR2ZFb1j0K+TQi25I4IkdPHsruiaHqkkkYuq7W4QBcIimAa0Oq4MITeKEkAG5vKCO4l3oYR+iO4Mx9pMQjOheCM/dKhUd0Y7cUQE91awfonPqaCm+PCQCvbajh58bBhm9KAYTfnrXG9+QY8Ns7N3yrRxrhrT0aKyu5mIIHvtkb8QreWw1R7xxFaDx7I/Yjvp21B75bRQSKL1ol8AhfKQC+NXABvdkaAvYf3VR+m+VB72J4p/zWnQKtb1TE8nsmZcCPlCPgh06jiq911gF+IQ/VV1dFqitO31cd0a6JjeQFaG8quSSe7/Jc1ddYBls3cgLxsom/jtiuy/E+UkxJB/Cn8/OdM++C+bNqtzueagyqYvD/ppemkW8uENK8nj9pNQWoWTYBBcpoNbp+bo4CJoRe/Vqz+E7DltZ2rWi+ekvv10AO/FG7ZV+7MivohQrFZT4yvnpQaw1UwCtMLwT4am1dhebatRHigRlnWdqk7w3a6Bqbc167Ngakq6cCTWuzInStSU9cylW4c+AqV0AYI6JDrdTGj2sXZtQKy4Z+WXprF4bG2zoIzt4MRWXE37IZGDVLPenuFam++JFVWTZWwE899XVjmOEL5gTXXa+fSFrSzrKFYjQVAtptKQW00iJcBKcQIUC3xirrlKJTNNxcCUNS7u/Yuahg1NaMjCnJ6LE8fHMlB51v8R58crMbyGi5vXZDLxiLS1WLo1gcJtaZDKFJxTmchsmlTIaA83aKsqy7Fsoj+KbxeCPwnU+diCA4ZohT0+d3AlLiOSD55okNXiiD4rBMAckuRJBPjFJrr7GbVoR8wi1S3t8H8T5kgbnA2ZsBZTh842Fabj+H3lF3PBzh87x7mQ7fbtYRwrndO2Qp96VbZpN71wyowhfu1KhESC2JV/wi/Vm1GRuBj/Bji8LNbaUF1oYfWyBqrOPJ6+0tBXm3TiZWL/lPUeaNBaVm6TcXFG13zH+9oFnAPpKq3RydYZlcyxLkdMNwbjxBC0LAnmLmDOy1uLK+2drbORCPyATsscpA+aTfxlv73n1L6tfN8WMSVOP9r0/2o3+7+nJ+erp9+rr/P37rsqHbdzL++As=);strokeColor=none;spacingTop=-3;spacingBottom=-3;spacingLeft=-3;spacingRight=-3;points=[];labelBackgroundColor=none;rounded=0;html=1;whiteSpace=wrap;" vertex="1" parent="9SlJUzElj-oROItGfegS-1">
          <mxGeometry x="2" y="1" width="81" height="40" as="geometry" />
        </mxCell>
        <mxCell id="9SlJUzElj-oROItGfegS-5" style="vsdxID=8;fillColor=#2d5967;gradientColor=none;shape=stencil(lVnLUtwwEPyavU7p/Tgn5D9SgYStEKAWkix/Hzm7GkktS/bewEhuzUxPT8sc9Ke3x6+vDwcl3t5PLz8f/h7v3x8P+vNBqePz48Pp+J5+Oui7g/70/eX08OP08vv5/vL769dl5fLTr5c/yxvOl30xUgzLLiU+Lk+kIWn+P/ly2fDt9+myQ14XCHHdIHmH0JdHZ4Vr8gNNUV3X6B5a86ogb8PW5Nw2tpV7sLWfYS97NKCrvIfR0ypnAF+Sjh2+VIAvyE7hAznZwkd+wuieQmjRAwUN4I5ibMEDKT0FdwShe/IKsC1Z32J7Ug6wDQUI3OUDDrCDJ6tacEWxxfaao+SsF1JmIEnWtNiC9BTbejKmxRYkIek28cu24KJFtoKEA+QZrEnZhXyLFtPYXLERplF0C6Q2pLtIFbR1qlUOvqQZWksGErIFVpmno662HbU1CQttrUlBY2lutXNpogj0MhttHShC3Ibbg+lFQrXQljww25IERXHkwjTl/I7SVArkRJGFMgfG4aDJQcxxg9aCPOQ7Jc6EFjoR3bXQSchy8565gQRgL3VSU3BA1p2Gruj3HtjrINgN6zdhQ9gBeyXLFfbp+FyN12oDi5mc9kKV9UzQQAb4KFh8mRUxT86aFro9bOTuGICrIpBZ+BUJ04KXxGXwtAiHe98NUZOZFsgX3cjgpgxOZn+EfkhjR1qIvFeBtMrPXU2irQV4x+LPIlQpVRm5AoJfkcC0ykxlaJFWmHJp4kcYNbVKF8OBUtRLf/ZEqyStp9Pq8m4qVgMPjRkPRc+Cwg0lYEStDOQlmml/1JO+GDMBeao9Q6mTQhfYm5HEUj23YcnlBMBP9IdhVfml0iPA0hUbFiWoSYde+TvJe4wC9ECg3KnznQf43oIuIjJFr7xtEacIPVL75FKOGDp4dOChaZCWozvuKTdvaG9CfRc4mjMx/d232XCEfrxMzNIFhKnQnVgmNTJTuapfnFvQdZ6pPmI2FGl2wGVkxZ2WVSO5SnMP5lT9ZlZrNOXpjIDuuHl2Bx/wMlLlVPXnU1iccdxQ8i2dhOUtoRyr98fOpErPo4yTagk8uHZ5kpWaOrI7asqrBvAuaR+IS/3mXFNFAW47y7THex67wJpTVo+zW++4RhqyHR41gSpXguypYzFt+cCic+/p9qTRsPQJK6tGTSAIHEv9Yu4BAekyor+aFq5oDt5MuLhNrlvXw3ehrhopNK/GAP0Gp7Ix2V8+Z3LUs/K5yBSc9TKv2l2++sXD8qUzblYvxe7sOFldNYzduiL30pBClr02BNB7K7vL00quyqqxNijQ+/rNRRsi4lenHGtDF/8WuW5mY7dha/oncyhupE/ZUn05CLFNSHJMDgrS82dmhTryLKy9da54kz8RzAaLt+hVVrjDi/aPleq946mSjghfd1aI08W+xYNw60Sp6zWWpLr041R1nNoyGN2G9EP5lP/9+PR0+U9A/Xf89J8eXf5toO/+AQ==);strokeColor=none;spacingTop=-3;spacingBottom=-3;spacingLeft=-3;spacingRight=-3;points=[];labelBackgroundColor=none;rounded=0;html=1;whiteSpace=wrap;" vertex="1" parent="9SlJUzElj-oROItGfegS-1">
          <mxGeometry x="19" y="26" width="46" height="51" as="geometry" />
        </mxCell>
        <mxCell id="9SlJUzElj-oROItGfegS-6" value="&lt;div style=&quot;font-size: 1px&quot;&gt;&lt;p style=&quot;align:center;margin-left:0;margin-right:0;margin-top:0px;margin-bottom:0px;text-indent:0;valign:middle;direction:ltr;&quot;&gt;&lt;font style=&quot;font-size:16.93px;font-family:Oracle Sans;color:#000000;direction:ltr;letter-spacing:0px;line-height:120%;opacity:1&quot;&gt;Database&lt;br/&gt;&lt;/font&gt;&lt;/p&gt;&lt;/div&gt;" style="verticalAlign=middle;align=center;vsdxID=10;fillColor=none;gradientColor=none;shape=stencil(nZBLDoAgDERP0z3SIyjew0SURgSD+Lu9kMZoXLhwN9O+tukAlrNpJg1SzDH4QW/URgNYgZTkjA4UkwJUgGXng+6DX1zLfmoymdXo17xh5zmRJ6Q42BWCfc2oJfdAr+Yv+AP9Cb7OJ3H/2JG1HNGz/84klThPVCc=);strokeColor=none;spacingTop=-3;spacingBottom=-3;spacingLeft=-3;spacingRight=-3;points=[];labelBackgroundColor=none;rounded=0;html=1;whiteSpace=wrap;" vertex="1" parent="PHe9VQBaEmlKpY5_7-fe-73">
          <mxGeometry x="731" y="436" width="81" height="20" as="geometry" />
        </mxCell>
        <mxCell id="9SlJUzElj-oROItGfegS-8" style="edgeStyle=orthogonalEdgeStyle;rounded=0;orthogonalLoop=1;jettySize=auto;html=1;entryX=0.064;entryY=0.957;entryDx=0;entryDy=0;entryPerimeter=0;" edge="1" parent="PHe9VQBaEmlKpY5_7-fe-73" source="PHe9VQBaEmlKpY5_7-fe-46" target="9SlJUzElj-oROItGfegS-4">
          <mxGeometry relative="1" as="geometry">
            <Array as="points">
              <mxPoint x="680" y="432" />
              <mxPoint x="680" y="391" />
            </Array>
          </mxGeometry>
        </mxCell>
        <mxCell id="9SlJUzElj-oROItGfegS-9" style="edgeStyle=orthogonalEdgeStyle;rounded=0;orthogonalLoop=1;jettySize=auto;html=1;entryX=0.007;entryY=0.563;entryDx=0;entryDy=0;entryPerimeter=0;" edge="1" parent="PHe9VQBaEmlKpY5_7-fe-73" source="PHe9VQBaEmlKpY5_7-fe-46" target="PHe9VQBaEmlKpY5_7-fe-22">
          <mxGeometry relative="1" as="geometry">
            <Array as="points">
              <mxPoint x="680" y="432" />
              <mxPoint x="680" y="516" />
            </Array>
          </mxGeometry>
        </mxCell>
        <mxCell id="9SlJUzElj-oROItGfegS-17" style="vsdxID=58;fillColor=none;gradientColor=none;strokeColor=none;spacingTop=-3;spacingBottom=-3;spacingLeft=-3;spacingRight=-3;points=[];labelBackgroundColor=none;rounded=0;html=1;whiteSpace=wrap;" vertex="1" parent="PHe9VQBaEmlKpY5_7-fe-73">
          <mxGeometry x="385" y="644" width="84" height="81" as="geometry" />
        </mxCell>
        <mxCell id="9SlJUzElj-oROItGfegS-18" style="vsdxID=59;fillColor=#FFFFFF;gradientColor=none;shape=stencil(pdTNDoMgDADgp+Ha8C+enXsPE3GSOTHo/t5+ErJsM2EbemvhK+mhBbFibKtBI4rHydmjvpp6ahHbIUpN32pnpjlCrESsaKzTB2fPfR3yofLSRyd78S/cQh32FRTfQ0ZwyPeBdqaP0lwCpnHMIZOfnoHgcS+A0U0+U6BU3BPgYpMXBGie0E+q5wSkTOgn1RMOOEvoJ9V/GZycg1Tr8Y9JyAVQnlLwHPI/J3nJE3ZkPZ2D18Y2puvCwr/fLzd8Pgq/Aysf);strokeColor=none;spacingTop=-3;spacingBottom=-3;spacingLeft=-3;spacingRight=-3;points=[];labelBackgroundColor=none;rounded=0;html=1;whiteSpace=wrap;" vertex="1" parent="9SlJUzElj-oROItGfegS-17">
          <mxGeometry width="82" height="79" as="geometry" />
        </mxCell>
        <mxCell id="9SlJUzElj-oROItGfegS-19" style="vsdxID=60;fillColor=#FFFFFF;gradientColor=none;shape=stencil(pZbbboMwDIafJreWE+dArrvuPSqVDjQGFaU7vP1gUbUShDeXO+N8Dr+NTaJod6kO51IZvAx991p+1MehUvSkjKnbquzrYbQU7RXtTl1fvvTdtT2m5/NhIifrrXufdvhMcdGA01OUwa/kMUDFj+M58U3dsnwk8JEJIIgkCggQsjc48EEUEMCb9QADJm7jeUEeMEgyDmDjJj4EQEY/5fWR8o7viYUeKW8RLMMv9Eh57UEz+S70SHnpyGzlsxG2UMxwXN/bgXkU1WNZ7TquwW7jLQG6/8sR4g5BMyO1UCPlQ2S/aS5HiEfNNrwDtBJeg/H5D8fSOo9z2LKlmcMamRa7LT4E/yEjFrf2u0vSMVM97hd9XkXHnTv53El5JlmeHY3f8/xUN026Dtyv5+f/6Ep3B9p/Aw==);strokeColor=none;spacingTop=-3;spacingBottom=-3;spacingLeft=-3;spacingRight=-3;points=[];labelBackgroundColor=none;rounded=0;html=1;whiteSpace=wrap;" vertex="1" parent="9SlJUzElj-oROItGfegS-17">
          <mxGeometry width="84" height="81" as="geometry" />
        </mxCell>
        <mxCell id="9SlJUzElj-oROItGfegS-20" style="vsdxID=61;fillColor=#2d5967;gradientColor=none;shape=stencil(nZBLCoAwDERPk31tjuDnHoLVBmsrtf5ub0sQRdzobiZ5ycAA5pOuRwVSTMG7Xq3UBA1YgJRktfIUogIsAfPWedV5N9uG/VgnMqnBLenDxneZEOlGip09u4pRQ/aG/gTPhFf0Gf8J/otGcdXRkjHc5n3/rC+OuHosDw==);strokeColor=none;spacingTop=-3;spacingBottom=-3;spacingLeft=-3;spacingRight=-3;points=[];labelBackgroundColor=none;rounded=0;html=1;whiteSpace=wrap;" vertex="1" parent="9SlJUzElj-oROItGfegS-17">
          <mxGeometry x="6" y="35" width="3" height="4" as="geometry" />
        </mxCell>
        <mxCell id="9SlJUzElj-oROItGfegS-21" style="vsdxID=62;fillColor=#2d5967;gradientColor=none;shape=stencil(pdTdDoIgFAfwp+GW8aEzr83ew00MlolD+nr7IMpaFnns7vDnB4MxDuLFIKteIEYGa/ROnFRtJeJrxJjqpDDKugrxEvGi0UZsjT50dRj3lZe+2uuj3+Ec1iU4Sf0iRi4hoAwzfks2wbeqi3oCwGPwkd+3modzEE5xCjnJ1MeuOdU5TI/JnJv+0BSkJy8E9pDnX2U4y797shxTEjnHY3IRjtCFEPzD/vWueH7/RrVt6B6v8+/twkWh1fDyCg==);strokeColor=none;spacingTop=-3;spacingBottom=-3;spacingLeft=-3;spacingRight=-3;points=[];labelBackgroundColor=none;rounded=0;html=1;whiteSpace=wrap;" vertex="1" parent="9SlJUzElj-oROItGfegS-17">
          <mxGeometry x="6" y="1" width="71" height="71" as="geometry" />
        </mxCell>
        <mxCell id="9SlJUzElj-oROItGfegS-22" style="vsdxID=63;fillColor=#2d5967;gradientColor=none;shape=stencil(pZbdboMwDIWfJrdWYueP6657j0qlIxqDitJtffvCsmkrqB4ud8H5TnRiO8iKNqdqdywV6lPfta/lR9r3laInhZiaquxSP6wUbRVtDm1XvnTtudnn7+NuJMfVW/s+nvCZdQbB06hCfcmRQkOIX5HnLKhTwwqM1gz+vfkQzKEzGyK4AFPc5/XDrEXQDDw3Iha4CNoutSOCxYVfL7jtRQv+Bo8GnL9/fgG4Bg8ekMn81IwUR6AgMCPDfQCz3IuQJjCOqWoApHUC8hBxuSEpjsDUaZpJGY3hp6UXWZHiBJ55TzMzMtxEsII2kOIWrKgJxAIHyL1uB3YdXwxXYi48NyQWRAdOkFIpzv/+/sWHxe+QcEh1nWeMv/vToWII5YGEtlc=);strokeColor=none;spacingTop=-3;spacingBottom=-3;spacingLeft=-3;spacingRight=-3;points=[];labelBackgroundColor=none;rounded=0;html=1;whiteSpace=wrap;" vertex="1" parent="9SlJUzElj-oROItGfegS-17">
          <mxGeometry x="3" y="7" width="69" height="60" as="geometry" />
        </mxCell>
        <mxCell id="9SlJUzElj-oROItGfegS-23" style="vsdxID=64;fillColor=#2d5967;gradientColor=none;shape=stencil(nZLdDsIgDIWfhltS6ULC9ZzvsWRMiDgWhk7fXrAxTk32491p+7Wh9DAsB1P3mgkYYvAnPdomGoZ7JoTtjA42JsWwYli2Puhj8JeuobivM5nV2V/zhBv1KcmhyF0C7pSBZ3Qg2NluAiNXci0LH2ChuFRr4R1secMs/bveLP4q/gUv7LjppxfgJN4Hba1z5Idp/dsAKUXmweoB);strokeColor=none;spacingTop=-3;spacingBottom=-3;spacingLeft=-3;spacingRight=-3;points=[];labelBackgroundColor=none;rounded=0;html=1;whiteSpace=wrap;" vertex="1" parent="9SlJUzElj-oROItGfegS-17">
          <mxGeometry x="1" y="76" width="80" height="3" as="geometry" />
        </mxCell>
        <mxCell id="9SlJUzElj-oROItGfegS-24" style="vsdxID=65;fillColor=#2d5967;gradientColor=none;shape=stencil(jZTdboMwDIWfJrdWYuf3uuveo1rpQOtKRenG3n5hSQBHarW7cLD9HTsYQbtbe7g2AuVtHPqP5rs7jq2gF4HYXdpm6MZ4ErQXtDv1Q/M+9PfLMT1fD3PkfPrsv+YKU8pzBgLNWSh/suLA+D/lNSW83YeUoZYUV1Ky5BEMJmnCHKXBlqgseQc6SxPlKARrc1SWAgLiln/uLhvDIdY1zLCS8pnd4EF5bjciirdiNwQIvrKrIQRut6AWs3FYpJ7Sw1Kk0E0AbSu6BIWcrhGUroal1lpZQl8SH/ANgTecrzQojo9VTEUH5OyqbzZxfkElMsNMafaBQYxN1QbjgBx3qBVU80EH1nOPRoN33Cf5Ij3A29h6hTcSZHU/85Zozre0fkO0RpGovw++THxW/9i+eFh399Sdz2n1t+/rXY9S+k/Q/hc=);strokeColor=none;spacingTop=-3;spacingBottom=-3;spacingLeft=-3;spacingRight=-3;points=[];labelBackgroundColor=none;rounded=0;html=1;whiteSpace=wrap;" vertex="1" parent="9SlJUzElj-oROItGfegS-17">
          <mxGeometry x="46" y="22" width="13" height="21" as="geometry" />
        </mxCell>
        <mxCell id="9SlJUzElj-oROItGfegS-25" style="vsdxID=66;fillColor=#2d5967;gradientColor=none;shape=stencil(hZRNcoMwDIVPw1ZjSza212lyj0xDClMKGULa5PY1tSlI05Kd/ZD4HvqhoN21Pl6qAtV1HPr36qs5jXVBLwVi09XV0IzxVNC+oN25H6q3ob91p3S/HKfI6fTRf05vuKc8NODtlIXqkRTngPSPckgJr7chZeglxeeULJUExiTpjkkiBNQ5KksmQJijKEsWXJYeWSIPfpNvA6DjfHRQOs53HjBwvg5gAudrpThdWzDlmt423apcS3y6qy2jToO13KgBLepkSkBh04AibhM9KMeNTpLdosdio4AjKM/p6hc102N1jaCLEj0dkPhSQfYGQuBkDV58d0AoBdkCEYfPDfizO9MYlKw/QUPYrFJEeNEj70Bbbjb2LYhh9nG+xTCvd+m/WgnDz7cvHpbdPTdtm1Z//VzuepTSf4L23w==);strokeColor=none;spacingTop=-3;spacingBottom=-3;spacingLeft=-3;spacingRight=-3;points=[];labelBackgroundColor=none;rounded=0;html=1;whiteSpace=wrap;" vertex="1" parent="9SlJUzElj-oROItGfegS-17">
          <mxGeometry x="25" y="22" width="13" height="21" as="geometry" />
        </mxCell>
        <mxCell id="9SlJUzElj-oROItGfegS-26" style="vsdxID=67;fillColor=#2d5967;gradientColor=none;shape=stencil(lZTdUoNADIWfhtvMJtnf69q+R8dSYUToUKr49oK7yAanHb1bDkm+k7Ch4N21Ol7KgtR16LvX8qM+DVXBTwVR3VZlXw/TqeB9wbtz15cvfXdrT/H5cpwj59Nb9z5XGGOeDmDcnEXqMypGg+Jv5RATnm99zMAYwAa0SSlJMgzWR2mkKBGCDykqSayBE2vkKCGCXWolSeXspm4zs0oYJYZgHhm1oLX0qR0EJ32iBtz4tA4QpU8icEH69ArQP5wTAgfJDwxkJV+rdQKLJaUk3SiJXgLugE0AthK8llx69GBRYnNzCeQcEP6zbW/Ao6TnA11hxkp+/nE2jf7Qf31zeUH8VGKpmq4M0EO3U4dmM6vpmnraTIvBs3Q7r4mWbvNd4jWK7/v9w/ZNh3V3z3XTxNXP3293fZLif4L3Xw==);strokeColor=none;spacingTop=-3;spacingBottom=-3;spacingLeft=-3;spacingRight=-3;points=[];labelBackgroundColor=none;rounded=0;html=1;whiteSpace=wrap;" vertex="1" parent="9SlJUzElj-oROItGfegS-17">
          <mxGeometry x="30" y="49" width="24" height="6" as="geometry" />
        </mxCell>
        <mxCell id="9SlJUzElj-oROItGfegS-27" style="vsdxID=68;fillColor=#2d5967;gradientColor=none;shape=stencil(lVjbVhsxDPyavOrYlq/PtP0PTgklpxQ4Adrw99WStS3Psht4WxzLI0ujkcyOr57vrp/2O2eeX46Pv/f/Djcvdzv+tnPu8HC3Px5e5GvH33d8dft43P86Pr4+3Jz/frqedk5ffx7/TiecznY+ki2TlTNv5xWO5Oz7yo+zwc/X49nCziaepl/fTWyzCfm8dHLzLkc8b5pXONFsduJ5jyEf503zEmcyaQudAwU7oqtjKjpb4jTCi9sxjvguU8wjfjBkNm/vApU84ofQwCq+85TziB8thQL4chc/4sdEiS/gZ4h+LFQK4EdiO+InV/Pa8RMZN+InT+w1/v3hQdHFDFQpjrzfctaS5dHXEshAruQQcLWkTqfKC8o8emqNWfeTDY2sznZeWKOV63UwL2XuhKm0kiU/+poDuQC+yhKkNcdquIZfKEBaiyEH+BOHC8TKtWo8NQ6P4H3LCvhEYKgpfWwlsJQZcFq7WAnsKcUvXj4KW+OIr8Na8RNlIIpOUcUvZAEeUj8ypYgAVqX4kFjo7EROYIrma41MpgwCpKkPHNap8hvlJzVceHB2Ua/obuKucbadgrmVYywQK5nRV9mCYn1RrFIgi2KlZLCDG0isltSKL5IOYnVRrKMIPAiQbgOuUdbD5XVLqWBlIdYXm1WQAI3wqgn2qyYoK91OKzp38nPbNTbqkSvaQov3mquOAtSgAUctOaA0UMSX3hv5E5g+L7gJmD7VeljFVAPMR5hjUD4x7nzZYByoouqpjV5z3a+xNFUa9SpJVJCl4gm2dNuoo+TXQZVKEZqwiS+iA1WacusILf2FEqQ/myZyjaexlVfTXzl+k3lMIYzwoutV5xq86VJS4X1rG4oNQMCpRWxqlGfyEH3xGCRq0gPsPbaGtTf+3IWMMZDr8yyUneQLu4nMHSWM8CLiBmckJge3FwF0m9yTuQfgJzX0AK/ajhoGIPXs24D51tmQL03zHpqp0AHHHhHNCNSb6ADX92o+qUv5QoOQ5DvA9zJgw/2FVXGEn7oIwi/Fr+9aF10ovMkE5p7gF9wTH60f4SXUjcZKGjfRMwXsjl2K9NgH6LklrcmObU8Q1Zzd5sgdpe6h8CQeBipP6JiBexIQx4Af+mCslGgTPi4angRkobppMZvIXRfXXz6kFqo/9pVPtAn56K/228P9/fnRr3/HV74snf9DwN//Aw==);strokeColor=none;spacingTop=-3;spacingBottom=-3;spacingLeft=-3;spacingRight=-3;points=[];labelBackgroundColor=none;rounded=0;html=1;whiteSpace=wrap;" vertex="1" parent="9SlJUzElj-oROItGfegS-17">
          <mxGeometry x="21" y="16" width="41" height="36" as="geometry" />
        </mxCell>
        <mxCell id="9SlJUzElj-oROItGfegS-28" style="vsdxID=69;fillColor=#2d5967;gradientColor=none;shape=stencil(jVLbDoIwDP2avZKtDRKfEf/DyJBFBDJA4e9lKYatBMNbL+fs9HQVmHblrdUCZNfb5qk/Ju9LgRcBYOpSW9PPkcBMYFo0Vj9sM9Q55e3NIV30at7uhZF4sXQUkBOlSlJ+Jex9sARW1E6S6KQWggoZcgRWmGBDGpFjMBhjR3aFLwWACM+hrD/aUpKhaMw0/0p6Cj9R5pO59EfCEHHII3PoL22rMPFd73lk/1mZ+vDfz8F6NIWpKro5v8+PbC7RgWL2BQ==);strokeColor=none;spacingTop=-3;spacingBottom=-3;spacingLeft=-3;spacingRight=-3;points=[];labelBackgroundColor=none;rounded=0;html=1;whiteSpace=wrap;" vertex="1" parent="9SlJUzElj-oROItGfegS-17">
          <mxGeometry x="37" y="35" width="8" height="8" as="geometry" />
        </mxCell>
        <mxCell id="9SlJUzElj-oROItGfegS-29" value="&lt;div style=&quot;font-size: 1px&quot;&gt;&lt;p style=&quot;align:center;margin-left:0;margin-right:0;margin-top:0px;margin-bottom:0px;text-indent:0;valign:middle;direction:ltr;&quot;&gt;&lt;font style=&quot;font-size:16.93px;font-family:Oracle Sans;color:#000000;direction:ltr;letter-spacing:0px;line-height:120%;opacity:1&quot;&gt;Vault&lt;br/&gt;&lt;/font&gt;&lt;/p&gt;&lt;/div&gt;" style="verticalAlign=middle;align=center;vsdxID=71;fillColor=none;gradientColor=none;shape=stencil(nZBLDoAgDERP0z3SIyjew0SURgSD+Lu9kMZoXLhwN9O+tukAlrNpJg1SzDH4QW/URgNYgZTkjA4UkwJUgGXng+6DX1zLfmoymdXo17xh5zmRJ6Q42BWCfc2oJfdAr+Yv+AP9Cb7OJ3H/2JG1HNGz/84klThPVCc=);strokeColor=none;spacingTop=-3;spacingBottom=-3;spacingLeft=-3;spacingRight=-3;points=[];labelBackgroundColor=none;rounded=0;html=1;whiteSpace=wrap;" vertex="1" parent="PHe9VQBaEmlKpY5_7-fe-73">
          <mxGeometry x="404" y="729" width="46" height="20" as="geometry" />
        </mxCell>
        <mxCell id="9SlJUzElj-oROItGfegS-30" style="vsdxID=95;fillColor=none;gradientColor=none;strokeColor=none;spacingTop=-3;spacingBottom=-3;spacingLeft=-3;spacingRight=-3;points=[];labelBackgroundColor=none;rounded=0;html=1;whiteSpace=wrap;" vertex="1" parent="PHe9VQBaEmlKpY5_7-fe-73">
          <mxGeometry x="495" y="647" width="84" height="79" as="geometry" />
        </mxCell>
        <mxCell id="9SlJUzElj-oROItGfegS-31" style="vsdxID=96;fillColor=#FFFFFF;gradientColor=none;shape=stencil(nZNNbsMgEIVPw3YEDL/rNL1H1Dg1qmtHxGmT2wfEkNpW67aRvIDH98aDn4fh5tTujg2T/DTG4a35DPuxZfjEpAx928QwphXDLcPNYYjNaxzO/b7sj7tM5tX78JErXIrPGuAquyS/FsV7yNv0PBfDyzkWhyiAQeCSLCR5CUhVLrJIWoPURJHkBGhBFBKlwJB0Jcn4KtH7u9BPGp46SFk2PDfwx2H+M+g4SPE4jA5wpQ3B540oC0r/Hc+fENciTBmjmUeYwiHPPUKf8lpEmIJWlaK8rAPt5hHm8iu3s7Ye14brBb7Hf/9F/21Ii6+JOISuKwM1PV9OUJLK9OH2Bg==);strokeColor=none;spacingTop=-3;spacingBottom=-3;spacingLeft=-3;spacingRight=-3;points=[];labelBackgroundColor=none;rounded=0;html=1;whiteSpace=wrap;" vertex="1" parent="9SlJUzElj-oROItGfegS-30">
          <mxGeometry width="82" height="77" as="geometry" />
        </mxCell>
        <mxCell id="9SlJUzElj-oROItGfegS-32" style="vsdxID=97;fillColor=#FFFFFF;gradientColor=none;shape=stencil(pVXLcsIwDPyaXDW2ZDv2mcJ/MCWUTClhArT07+vUzkOmmEm5GbGraCWtXdDitFsfqwLF6dw279VXvTnvCnopEOvDrmrrsz8VtCxosW3a6q1tLodN+H1cd8ju9NF8dhmugVdaUB0JxXcIIJD9DawCfF8fcnByoOR9vCvBMryygDQDbxxInOJfL22oXw4MjIwYsQIoFnnFGHJgZUTFkBOgI/FKUVwJykUUDdmFzrTDQKlZvZ6gTJYgZErgX0gFGgLjuMJp7VGONoCWK/R9iKMZFGoNxnCFNw3mBU8ZMeJHlFGIgOop/MwFfBLO3eBbZvg8xf3c4n9AI7IO0ATkniRYcPMIDkSZ20Gt+iUdXSYBkx00Evq8vckQJCUmU+D6VL3J0s8nM9RQcsv4O+eBKRleisxwvOmNm5XerxSlhHz7nBwvFnnbGRzSkOb9mzaZuBhm4Ey5Iz5ewKY39N8XsE0d4AlC3SfcWoa84WcRMtN5APaH8WHb1vt9eBen/6cPoQ+FR5SWPw==);strokeColor=none;spacingTop=-3;spacingBottom=-3;spacingLeft=-3;spacingRight=-3;points=[];labelBackgroundColor=none;rounded=0;html=1;whiteSpace=wrap;" vertex="1" parent="9SlJUzElj-oROItGfegS-30">
          <mxGeometry width="84" height="79" as="geometry" />
        </mxCell>
        <mxCell id="9SlJUzElj-oROItGfegS-33" style="vsdxID=98;fillColor=#2d5967;gradientColor=none;shape=stencil(pZLNDoIwEISfptdN6cICZ8T3IKFII1JSwJ+3l9oYEQWD3KbTb3YPOwyTtswayQRvO6OP8qLyrmS4Y0KoupRGdYNimDJMCm3kwei+zt27ySxp1Umf7YSry/mAgQ0JfnMGAfoPY+/wStUjPA6ANvIeBOFCIIRIvAc4iHne43zN+CnO59E/weeGrygRRLQFjxGI5gMf11zLL1/zJz6IV9EKVVWup+P/aTEHy5Ua0zs=);strokeColor=none;spacingTop=-3;spacingBottom=-3;spacingLeft=-3;spacingRight=-3;points=[];labelBackgroundColor=none;rounded=0;html=1;whiteSpace=wrap;" vertex="1" parent="9SlJUzElj-oROItGfegS-30">
          <mxGeometry x="1" y="1" width="64" height="44" as="geometry" />
        </mxCell>
        <mxCell id="9SlJUzElj-oROItGfegS-34" style="vsdxID=99;fillColor=#2d5967;gradientColor=none;shape=stencil(pVXbcoMgFPwaXs8cbgLPafofmcZUp1YzxrTJ3xcKXtCR0ckbHnfJ7roQwg+34nTNCcNb1zZf+W957grC3whjZV3kbdnZFeFHwg+Xps0/2+Zen/3z9eSQbvXd/LgdHp4nEZA6FsOnn+D/07sHV2U9AWMEpBlQsxUsKahsCv64t14HDbuBYIERJgpBewo+WAAZwB4VRloD1QHF/UhoYIH4DCNjgNN1rcsUKCZycGZUBF/sP7en6fgLdKk8mDEapIz92RTMzF+vbXC3CDeWO+KHD7cvjFQUaXBcNsOAxmCrXCZrYax9GeeWqUVuyo74rBd2ZxPnJjmYeS9scqkoJozQLVtKvU4QGaB6jeAk6VQkjIGZNYlCpuJENGgVB2Jj609FH4gaDtikSZlYVzshBC0IjO9xp/qTsxHPBYhEfFIAytcIaUW2sozvsbyh47sJdjHe35eyqvz1P30/v+/tyP9X8OMf);strokeColor=none;spacingTop=-3;spacingBottom=-3;spacingLeft=-3;spacingRight=-3;points=[];labelBackgroundColor=none;rounded=0;html=1;whiteSpace=wrap;" vertex="1" parent="9SlJUzElj-oROItGfegS-30">
          <mxGeometry x="47" y="30" width="35" height="46" as="geometry" />
        </mxCell>
        <mxCell id="9SlJUzElj-oROItGfegS-35" style="vsdxID=100;fillColor=#2d5967;gradientColor=none;shape=stencil(lZHNDsIgEISfZq9kYVvUc63v0aRUiLU0FP/eXpCoraaN3obd+SYbBqgYdNUrEDh4Zw/qYmqvgbYghOm0csYHBVQCFY11au/sqavTu6+iM6qjPceEa+I4MeSREnhLkwwZl4/JLgGt6UYATsy5ZHk2b6aMCTkBOOK8/bl8mZfT1yuG0/SF7O9TZMA3C8f8+zM/AEG8i2hM26Yex/vP4sIolU7lHQ==);strokeColor=none;spacingTop=-3;spacingBottom=-3;spacingLeft=-3;spacingRight=-3;points=[];labelBackgroundColor=none;rounded=0;html=1;whiteSpace=wrap;" vertex="1" parent="9SlJUzElj-oROItGfegS-30">
          <mxGeometry x="37" y="9" width="15" height="12" as="geometry" />
        </mxCell>
        <mxCell id="9SlJUzElj-oROItGfegS-36" style="vsdxID=101;fillColor=#2d5967;gradientColor=none;shape=stencil(lVPLDoMgEPwarmRlterZ2v8wESupFYP29fddSpr6iFZuuzCzsxkGhllfF51kAvrB6It8qHKoGR6ZEKqtpVEDVQxzhlmljTwbfWtL13eFRdrqqu92wtPxAgDLEfByfSJ4GHxOTg7eqHYEP8Q8TCaECDgk64T5/CDmUboOJ/lITAiwDrbS6QSMRN/YhbTjvcO91ibdEH1s8TJ9uffX1Z220Ktt2LL0fHO8Z2L+wqn4hbNSTeOyPb6fh5mO3EfA/A0=);strokeColor=none;spacingTop=-3;spacingBottom=-3;spacingLeft=-3;spacingRight=-3;points=[];labelBackgroundColor=none;rounded=0;html=1;whiteSpace=wrap;" vertex="1" parent="9SlJUzElj-oROItGfegS-30">
          <mxGeometry x="39" y="23" width="11" height="11" as="geometry" />
        </mxCell>
        <mxCell id="9SlJUzElj-oROItGfegS-37" style="vsdxID=102;fillColor=#2d5967;gradientColor=none;shape=stencil(pVbLcsIwDPyaXDW25OeZ0v9gSiiZUsIEaOnf154kJJaLGcrNMWuvtFrJVLQ4bleHukJxPHXtR/3drE/bil4qxGa/rbvmFFYVLStabNqufu/a837dfx9WERlXn+1XvOHSn5NCxDMoftLv1x68a/YFsCLwag5/O3f95ZIfGDYIAX2/dcF+y1sgNaCGLZQg5YCiAYVgRtSwJRGcLbE7C55SfgWGUnonQcuUXqTUVoGTKXVBI9QgfaKSKCrkQPk0RpEGGNIUNg1wlsUYI5B5UJ0gqEmJ57KnUozE8/JRiqAblkjVecRsCqR9Bn7fnbMjoz8mN1z1V6A0k8Fn/pQaBDMJGXCmyK9Bp/QUKouM3gC6rAraMno7oUZ6AU7fsR6y9DEkphi/B8Xb04Jl/CjAsvQxpF+UPzhQKMavwTP5kUAh49egmP8x79EJ9adfQldf771xgAdsNbgsXsXmibVT/2Oe1divoe1NrlexXtaDZeMsVsKxeSaA08+KSteh53yV2aU8TcNAYfTRiGyaOwLDxinl48qFzmPpx24p86tsYMU+ZO0SUJ7ZNfY0ZvyevSZ3Btf8xD9eymfAYTG93ptmt+sf//nv/LUPW/0/BVr+Ag==);strokeColor=none;spacingTop=-3;spacingBottom=-3;spacingLeft=-3;spacingRight=-3;points=[];labelBackgroundColor=none;rounded=0;html=1;whiteSpace=wrap;" vertex="1" parent="9SlJUzElj-oROItGfegS-30">
          <mxGeometry x="11" y="26" width="19" height="10" as="geometry" />
        </mxCell>
        <mxCell id="9SlJUzElj-oROItGfegS-38" style="vsdxID=103;fillColor=#2d5967;gradientColor=none;shape=stencil(lZZBctswDEVPoy2GBEiQXKfJPTKNU3vqxhnHaZPbF6okmgAbZrKTaVJPwMf/0kQ3L/v7592E7uVyPv3c/Tk8XPYTfZsQD0/73flwkauJbie6eTyddz/Op9enh+X38/28c776dfo93+FtORcKRJ5PoXtfVrxz/37fLdu/v56X/X75Oxag7YDXJ9wbLgucoeC6Z10qCfy6iZaVlMDRumldKh44juA5AqKGZwb0Gi+3iUnjU4aQNb/IvVjzuUCgEb8UcEHz2QFlza/92OjRQUBDz+CSpgcHGYd07qon/7/qQ9F8RKCi+TlAzJrvIwQe8UWxWDQ/Qwyd9jloPG11VboMERo4FD9it3O6LpmhowKsuQ6K0ZwcGMkDpKHi8mCRbM3BCn6tcGP70BWdgaKGiy4lDemQTcNFcG8EN8MmY8RGbKex8zjmEdZpJhOwYTY+3BzW+JBqD7bp2NBi4KHBZVZS1vQS6lKVmus8v1vPbfB2YEjvWdnHw9NXgvCz3BSxcGif2ASOt2eu/pEUMO4lKFEXx7HrLErADtMjOUDTWroubfhE1TTVvo0AVMX2hi9jt0bjR3yZf6/5IQIZvKSHwUcPzsyzBFEyVooMPLSSPDIbI3Pf/bl8jefUZae8JrLJziShO8wvUSwb8ZPkrQ1PB8n6KoM33ZdB8pYvgVq+mJ9ZYkDjQ+M+rDfOpPEkoW+6L4KMX9xEgLEv3wyfRGQyGS6NTab9Ej5s3h4ikhvnCm76tOoTGn7ffpmrZMzX7qLrjA69357xtdnB8vv+S9SZVMUC3gSb+Hg4+9QEsa9NNNYL8gomDW/j6eNY7YLvs2DtDsjF9fv08XA8Lp+37f/2e1aWlm9huv0L);strokeColor=none;spacingTop=-3;spacingBottom=-3;spacingLeft=-3;spacingRight=-3;points=[];labelBackgroundColor=none;rounded=0;html=1;whiteSpace=wrap;" vertex="1" parent="9SlJUzElj-oROItGfegS-30">
          <mxGeometry x="14" y="10" width="13" height="13" as="geometry" />
        </mxCell>
        <mxCell id="9SlJUzElj-oROItGfegS-39" value="&lt;div style=&quot;font-size: 1px&quot;&gt;&lt;p style=&quot;align:center;margin-left:0;margin-right:0;margin-top:0px;margin-bottom:0px;text-indent:0;valign:middle;direction:ltr;&quot;&gt;&lt;font style=&quot;font-size:16.93px;font-family:Oracle Sans;color:#000000;direction:ltr;letter-spacing:0px;line-height:120%;opacity:1&quot;&gt;IAM&lt;br/&gt;&lt;/font&gt;&lt;/p&gt;&lt;/div&gt;" style="verticalAlign=middle;align=center;vsdxID=105;fillColor=none;gradientColor=none;shape=stencil(nZBLDoAgDERP0z3SIyjew0SURgSD+Lu9kMZoXLhwN9O+tukAlrNpJg1SzDH4QW/URgNYgZTkjA4UkwJUgGXng+6DX1zLfmoymdXo17xh5zmRJ6Q42BWCfc2oJfdAr+Yv+AP9Cb7OJ3H/2JG1HNGz/84klThPVCc=);strokeColor=none;spacingTop=-3;spacingBottom=-3;spacingLeft=-3;spacingRight=-3;points=[];labelBackgroundColor=none;rounded=0;html=1;whiteSpace=wrap;" vertex="1" parent="PHe9VQBaEmlKpY5_7-fe-73">
          <mxGeometry x="512" y="731" width="50" height="20" as="geometry" />
        </mxCell>
        <mxCell id="9SlJUzElj-oROItGfegS-40" style="vsdxID=76;fillColor=none;gradientColor=none;strokeColor=none;spacingTop=-3;spacingBottom=-3;spacingLeft=-3;spacingRight=-3;points=[];labelBackgroundColor=none;rounded=0;html=1;whiteSpace=wrap;" vertex="1" parent="PHe9VQBaEmlKpY5_7-fe-73">
          <mxGeometry x="610" y="638" width="84" height="84" as="geometry" />
        </mxCell>
        <mxCell id="9SlJUzElj-oROItGfegS-41" style="vsdxID=77;fillColor=none;gradientColor=none;strokeColor=none;spacingTop=-3;spacingBottom=-3;spacingLeft=-3;spacingRight=-3;points=[];labelBackgroundColor=none;rounded=0;html=1;whiteSpace=wrap;" vertex="1" parent="9SlJUzElj-oROItGfegS-40">
          <mxGeometry width="84" height="84" as="geometry" />
        </mxCell>
        <mxCell id="9SlJUzElj-oROItGfegS-42" style="vsdxID=78;fillColor=#FFFFFF;gradientColor=none;shape=stencil(lZPRDoIwDEW/Zq9LWUHCs+J/EAVZRCATFP/eYYdsAzW+td2922mzMtxey6zNmYBrp5pzfpfHrmS4Y0LIusyV7HTEMGW4LRqVn1TT10fK22xUjtGluY03DOSLOEajScCDCknC482rsif9oVdkCEggeIjGEfgWGASVwChMmsQchVGgqzBpEvLQfrWStUUJDuKb+QMhuHgz8ERnteDyTnDWVBzcVTiNvnFnCN/o9Cyi2CUEFy8Ab3xWB+hLfOJVxFnuI3+AnA1L6kEsG/HJB1zOxkNfBf39Hf/V62D++4WsKlod+9zfFV2iPcP0CQ==);strokeColor=none;spacingTop=-3;spacingBottom=-3;spacingLeft=-3;spacingRight=-3;points=[];labelBackgroundColor=none;rounded=0;html=1;whiteSpace=wrap;" vertex="1" parent="9SlJUzElj-oROItGfegS-41">
          <mxGeometry x="1" y="1" width="82" height="82" as="geometry" />
        </mxCell>
        <mxCell id="9SlJUzElj-oROItGfegS-43" style="vsdxID=79;fillColor=#FFFFFF;gradientColor=none;shape=stencil(lZXRdoIwDIafprc9aUMpvXb6Hp6JgzMmHsSNvf1gLbQNCHpX4h/88iehDHe34njNmYRb29Sf+U95aguGb0zK8lLkTdn2J4Z7hrtz3eQfTX2/nOzz9Tgoh9NX/T28obN5BjmqIUvCr41Ijtl/4GD17/fGJgiXoXhiXIYgKdBJJ9IcR5ELJVy6SIdzkQulPMHwz6vyEsIGCRN+JlZpgxRfgFEEN6jJV5ClhDfwCqlqEbgvR8S8VE95e5c0wdU8lTFu77cmtIprEdMGIs+v9GPYIGG5GZQ1SBCzHstZPXI2LDhzCZdnkIzB5sy+qt/aCXihxbBuWaZiyyD2C6hZdAghdmp9YSAi21wWYHTyREInb+J3EQHANro5Sh41R8U7TeQLGy2Ih56BQgXbPJWCVPPcenj9c9thDNcp/U5O3Ry5Um5EjErsXPjorLu5Nrr9wV8E57Kq7D0S/k4vjj5kLx3c/wE=);strokeColor=none;spacingTop=-3;spacingBottom=-3;spacingLeft=-3;spacingRight=-3;points=[];labelBackgroundColor=none;rounded=0;html=1;whiteSpace=wrap;" vertex="1" parent="9SlJUzElj-oROItGfegS-41">
          <mxGeometry width="84" height="84" as="geometry" />
        </mxCell>
        <mxCell id="9SlJUzElj-oROItGfegS-44" style="vsdxID=80;fillColor=none;gradientColor=none;strokeColor=none;spacingTop=-3;spacingBottom=-3;spacingLeft=-3;spacingRight=-3;points=[];labelBackgroundColor=none;rounded=0;html=1;whiteSpace=wrap;" vertex="1" parent="9SlJUzElj-oROItGfegS-40">
          <mxGeometry x="2" y="2" width="80" height="80" as="geometry" />
        </mxCell>
        <mxCell id="9SlJUzElj-oROItGfegS-45" style="vsdxID=81;fillColor=#2d5967;gradientColor=none;shape=stencil(pVjbctsgEP0ave5wvzyn6X9kGqfW1LUzitM6f19U2YIFaxHWmxDniMNe2BWdfPrYv7zvOsE+zsPp1+5v/3red/JbJ0R/3O+G/hyeOvncyae307D7OZw+j6/T+P1lRI5Pv09/xi9cJp7XoPnIEuxresP+j75P4EN/TMAKhFrG/vgcpi/zaZKD91c0T+HsItDw6zoU11mJZ+W8tl5WxpAsbyhdDIvyDqtKZN/eMIalJXaQGHJXHHfgNRJIwoUH7tbDlQau1sO1BmnWwy0HKdbDHQfdsNUQfZYUk/vOO2C3cOW5d3J33fw3e1jmABllEMEV8fdDsRDpb5+bRQos0du4b5wMlyhpzkuUEEt2pLIYp7wEi+NFOHL73kSbP0iQEgi8DSGJ8cpT+DArcYIoQeHDjo1HeCPIDRQW0qT+VoPW8dhhxbErafMXSZXji4A1RVbNlBizBkQWsyqL2QSx6tROCVdLkGbz/nFwLWkTp3C8O1F8URQ2WiwMtKuqnsWBIEQeyKMFqcgvCI6RmaJBqU34ZkHbCVmyODCyZYWSYBhJ0KEk2m2EZknbCdhKVoHjLSuUBGNpggVtthGCpCZFD+DbtlwxalmFKyuEbqnJzQXe0HWVA7Ob8BU9oZfkTRsuCZr0mQou8JvwteMltOZNLigJ1tDNY9H8NxNqyZ8XkQJf1rr8zyxSkno3F8S5A+hQtUsQ6xrpsq+yZHVRwLO+zRKxxYBjzyj6PAhNDz5v6C7vTlfrat0Ny7OD8sqdLmy2uIj2zXqw1HPL/w6VEFpxcoWHeIfw1h8O0xVEOp/fOYRX032FfP4H);strokeColor=none;spacingTop=-3;spacingBottom=-3;spacingLeft=-3;spacingRight=-3;points=[];labelBackgroundColor=none;rounded=0;html=1;whiteSpace=wrap;" vertex="1" parent="9SlJUzElj-oROItGfegS-44">
          <mxGeometry width="80" height="80" as="geometry" />
        </mxCell>
        <mxCell id="9SlJUzElj-oROItGfegS-46" style="vsdxID=82;fillColor=#2d5967;gradientColor=none;shape=stencil(pZJNDoMgEIVPw5Yg01b31t7DRCykFAxqf25fyKRBDYtid2+G781kyCNQj7IdBOFsnJy9iafqJkngTDhXRgqnJq8INATq3jpxdXY2HdZDG8ig7vYRJrzQVzAWPJy9scbqgqhWZoHuBL8bkuh2fRa8F13/QMloBSs4dpKzoaD8+J8hdpKGU0XLQ44h+4YfDF7E0PRKa8zc8n0bMt/CgELzAQ==);strokeColor=none;spacingTop=-3;spacingBottom=-3;spacingLeft=-3;spacingRight=-3;points=[];labelBackgroundColor=none;rounded=0;html=1;whiteSpace=wrap;" vertex="1" parent="9SlJUzElj-oROItGfegS-44">
          <mxGeometry x="6" y="6" width="9" height="9" as="geometry" />
        </mxCell>
        <mxCell id="9SlJUzElj-oROItGfegS-47" value="&lt;div style=&quot;font-size: 1px&quot;&gt;&lt;p style=&quot;align:center;margin-left:0;margin-right:0;margin-top:0px;margin-bottom:0px;text-indent:0;valign:middle;direction:ltr;&quot;&gt;&lt;font style=&quot;font-size:16.93px;font-family:Oracle Sans;color:#000000;direction:ltr;letter-spacing:0px;line-height:120%;opacity:1&quot;&gt;Monitoring&lt;br/&gt;&lt;/font&gt;&lt;/p&gt;&lt;/div&gt;" style="verticalAlign=middle;align=center;vsdxID=84;fillColor=none;gradientColor=none;shape=stencil(nZBLDoAgDERP0z3SIyjew0SURgSD+Lu9kMZoXLhwN9O+tukAlrNpJg1SzDH4QW/URgNYgZTkjA4UkwJUgGXng+6DX1zLfmoymdXo17xh5zmRJ6Q42BWCfc2oJfdAr+Yv+AP9Cb7OJ3H/2JG1HNGz/84klThPVCc=);strokeColor=none;spacingTop=-3;spacingBottom=-3;spacingLeft=-3;spacingRight=-3;points=[];labelBackgroundColor=none;rounded=0;html=1;whiteSpace=wrap;" vertex="1" parent="PHe9VQBaEmlKpY5_7-fe-73">
          <mxGeometry x="605" y="727" width="94" height="20" as="geometry" />
        </mxCell>
        <mxCell id="9SlJUzElj-oROItGfegS-48" value="" style="group" vertex="1" connectable="0" parent="PHe9VQBaEmlKpY5_7-fe-73">
          <mxGeometry x="880" y="474" width="114" height="109" as="geometry" />
        </mxCell>
        <mxCell id="9SlJUzElj-oROItGfegS-49" style="vsdxID=70;fillColor=none;gradientColor=none;strokeColor=none;spacingTop=-3;spacingBottom=-3;spacingLeft=-3;spacingRight=-3;points=[];labelBackgroundColor=none;rounded=0;html=1;whiteSpace=wrap;" vertex="1" parent="9SlJUzElj-oROItGfegS-48">
          <mxGeometry x="15" y="-8" width="84" height="84" as="geometry" />
        </mxCell>
        <mxCell id="9SlJUzElj-oROItGfegS-50" style="vsdxID=71;fillColor=none;gradientColor=none;strokeColor=none;spacingTop=-3;spacingBottom=-3;spacingLeft=-3;spacingRight=-3;points=[];labelBackgroundColor=none;rounded=0;html=1;whiteSpace=wrap;" vertex="1" parent="9SlJUzElj-oROItGfegS-49">
          <mxGeometry width="84" height="84" as="geometry" />
        </mxCell>
        <mxCell id="9SlJUzElj-oROItGfegS-51" style="vsdxID=72;fillColor=#FFFFFF;gradientColor=none;shape=stencil(lZPRDoIwDEW/Zq9LWUHCs+J/EAVZRCATFP/eYYdsAzW+td2922mzMtxey6zNmYBrp5pzfpfHrmS4Y0LIusyV7HTEMGW4LRqVn1TT10fK22xUjtGluY03DOSLOEajScCDCknC482rsif9oVdkCEggeIjGEfgWGASVwChMmsQchVGgqzBpEvLQfrWStUUJDuKb+QMhuHgz8ERnteDyTnDWVBzcVTiNvnFnCN/o9Cyi2CUEFy8Ab3xWB+hLfOJVxFnuI3+AnA1L6kEsG/HJB1zOxkNfBf39Hf/V62D++4WsKlod+9zfFV2iPcP0CQ==);strokeColor=none;spacingTop=-3;spacingBottom=-3;spacingLeft=-3;spacingRight=-3;points=[];labelBackgroundColor=none;rounded=0;html=1;whiteSpace=wrap;" vertex="1" parent="9SlJUzElj-oROItGfegS-50">
          <mxGeometry x="1" y="1" width="82" height="82" as="geometry" />
        </mxCell>
        <mxCell id="9SlJUzElj-oROItGfegS-52" style="vsdxID=73;fillColor=#FFFFFF;gradientColor=none;shape=stencil(lZXRdoIwDIafprc9aUMpvXb6Hp6JgzMmHsSNvf1gLbQNCHpX4h/88iehDHe34njNmYRb29Sf+U95aguGb0zK8lLkTdn2J4Z7hrtz3eQfTX2/nOzz9Tgoh9NX/T28obN5BjmqIUvCr41Ijtl/4GD17/fGJgiXoXhiXIYgKdBJJ9IcR5ELJVy6SIdzkQulPMHwz6vyEsIGCRN+JlZpgxRfgFEEN6jJV5ClhDfwCqlqEbgvR8S8VE95e5c0wdU8lTFu77cmtIprEdMGIs+v9GPYIGG5GZQ1SBCzHstZPXI2LDhzCZdnkIzB5sy+qt/aCXihxbBuWaZiyyD2C6hZdAghdmp9YSAi21wWYHTyREInb+J3EQHANro5Sh41R8U7TeQLGy2Ih56BQgXbPJWCVPPcenj9c9thDNcp/U5O3Ry5Um5EjErsXPjorLu5Nrr9wV8E57Kq7D0S/k4vjj5kLx3c/wE=);strokeColor=none;spacingTop=-3;spacingBottom=-3;spacingLeft=-3;spacingRight=-3;points=[];labelBackgroundColor=none;rounded=0;html=1;whiteSpace=wrap;" vertex="1" parent="9SlJUzElj-oROItGfegS-50">
          <mxGeometry width="84" height="84" as="geometry" />
        </mxCell>
        <mxCell id="9SlJUzElj-oROItGfegS-53" style="vsdxID=74;fillColor=none;gradientColor=none;strokeColor=none;spacingTop=-3;spacingBottom=-3;spacingLeft=-3;spacingRight=-3;points=[];labelBackgroundColor=none;rounded=0;html=1;whiteSpace=wrap;" vertex="1" parent="9SlJUzElj-oROItGfegS-49">
          <mxGeometry x="13" y="19" width="56" height="54" as="geometry" />
        </mxCell>
        <mxCell id="9SlJUzElj-oROItGfegS-54" style="vsdxID=75;fillColor=#2d5967;gradientColor=none;shape=stencil(lZPLDoMgEEW/hi2BoVZdW/sfJmIhpWJQ+/j7QklTH5Hibpg598IAg1jRi6rjCEg/GH3lD1kPArETApCt4EYONkKsRKxotOEXo8e29uuucqSLbvruHJ5ed8xwmjgVkJfPUIoh/2TOXqBkOxFkKZ7zhxzTAL/ewDrQbZ7Z7ffwFPadZ+3/p+HdNxQhmL/Bgibb1hBNkhmYxHtSEmCXfYXYbzHmDPE3ECJt8PvmjVTKT8m0vhwLm/Ijxco3);strokeColor=none;spacingTop=-3;spacingBottom=-3;spacingLeft=-3;spacingRight=-3;points=[];labelBackgroundColor=none;rounded=0;html=1;whiteSpace=wrap;" vertex="1" parent="9SlJUzElj-oROItGfegS-53">
          <mxGeometry x="27" width="28" height="25" as="geometry" />
        </mxCell>
        <mxCell id="9SlJUzElj-oROItGfegS-55" style="vsdxID=76;fillColor=#2d5967;gradientColor=none;shape=stencil(lVTRcoMgEPwaXpnjiEWf0/Q/Mo2pTK1miGnj31cC6gEjTd9g3XN3jwMm99fmeKkZwnUw/Wf9o09Dw+QrQ9RdUxs9TCsmD0zuz72pP0x/605ufzlapl199d/2D3dXV4AtQRjdVgiO1QN5c+z3m3F04QgKeKV8iYhr4I4OKhX3yOgRLLndP0gyIXlkV3GRVSclqx/xEopTi6sfEYovuWXE2FDGioMMpclPvYzAGRkxtScT0rOxSYlI24mpQ0xPZiN3cuCt7v4xHtlhgmxDkRdlGArCQBCGIQVzmChLkRWEUEwpvos7SCzNHQT4o3+QFSUqy3WBKOcCLENDrMmY81TWlT53W3ClomtCrIUd38oaSGbnJGBOi/X1Oeu2dY8X/R6/VhPkXjp5+AU=);strokeColor=none;spacingTop=-3;spacingBottom=-3;spacingLeft=-3;spacingRight=-3;points=[];labelBackgroundColor=none;rounded=0;html=1;whiteSpace=wrap;" vertex="1" parent="9SlJUzElj-oROItGfegS-53">
          <mxGeometry x="15" y="29" width="24" height="25" as="geometry" />
        </mxCell>
        <mxCell id="9SlJUzElj-oROItGfegS-56" style="vsdxID=77;fillColor=#2d5967;gradientColor=none;shape=stencil(lZLLDoMgEEW/ZraEh624tvY/TMRCSsEgff19oaSpNqnK7jJz7mQmXGD1KNtBAMWjd/Ys7qrzEtgBKFVGCqd8UMAaYHVvnTg5ezVdeg9tJKO62Fuc8Ei+okJ7Fl0UP1OFFohU78oxGbQyEwMnqNzNDLxECzzhiObw2QttMKydjP9PxzOQ4AX009wEZy2xAgfx/d5eaZ3SMe3/xiGUUpRY8wI=);strokeColor=none;spacingTop=-3;spacingBottom=-3;spacingLeft=-3;spacingRight=-3;points=[];labelBackgroundColor=none;rounded=0;html=1;whiteSpace=wrap;" vertex="1" parent="9SlJUzElj-oROItGfegS-53">
          <mxGeometry width="27" height="25" as="geometry" />
        </mxCell>
        <mxCell id="9SlJUzElj-oROItGfegS-57" style="vsdxID=78;fillColor=#2d5967;gradientColor=none;shape=stencil(pZRRc4IwDMc/TV97bUIFn51+D09x9MbAq7jpt7csDNp0sO18S9Jfwj8JF4GbS7U/lwLUpXPtW/lpj10l8EUA2KYqne28JXArcHNqXfnq2mtzJP+878neem8/+go3ylsbmZs+C9SdIlqpL39HeG2bAM8kLNKHq6Pqmp5hgHVMqxtQYHDvg7vOZV4MBMYEjnqhmNenInELjYxK/o8mEnjTU4JO2/rutIg7nyaD6WLwD5v5dZHx3pHTmdT5fPUE958zZmkIQYYeUwqMp5Cx9a+k1vEYgh8OOfTzHFaxTk5znR4ALjSQMSkzTGvQDSYQzkyJa5VPLeFJ3BvTWTjZuqarEr7zM+JDdIJw+wA=);strokeColor=none;spacingTop=-3;spacingBottom=-3;spacingLeft=-3;spacingRight=-3;points=[];labelBackgroundColor=none;rounded=0;html=1;whiteSpace=wrap;" vertex="1" parent="9SlJUzElj-oROItGfegS-49">
          <mxGeometry x="2" y="10" width="80" height="72" as="geometry" />
        </mxCell>
        <mxCell id="9SlJUzElj-oROItGfegS-58" style="vsdxID=79;fillColor=#2d5967;gradientColor=none;shape=stencil(nZLbDoIwDEC/Zq9ktILwjPAfRIYsIiMDFP9eli5hw1v0re1Ol5O2DLOhKXvBgA+jVmdxk9XYMDwwANk1QstxiRjmDLNaaXHSauoqyvvSkCa6qKv5Yaa+kHPTA/zu5wXBrewc+G80SoIYXPg4abIIfdymsA+ilEoz2JIlwGuYkdJdAJEF0AVeuqWxJ8c/iaWJb8Z9q3V88GyOWwbfTMPX+2klX+AlWDdfy7alw3Hft5eylOjKMH8A);strokeColor=none;spacingTop=-3;spacingBottom=-3;spacingLeft=-3;spacingRight=-3;points=[];labelBackgroundColor=none;rounded=0;html=1;whiteSpace=wrap;" vertex="1" parent="9SlJUzElj-oROItGfegS-49">
          <mxGeometry x="2" y="2" width="80" height="5" as="geometry" />
        </mxCell>
        <mxCell id="9SlJUzElj-oROItGfegS-59" value="&lt;div style=&quot;font-size: 1px&quot;&gt;&lt;font style=&quot;font-size:16.93px;font-family:Oracle Sans;color:#000000;direction:ltr;letter-spacing:0px;line-height:120%;opacity:1&quot;&gt;Object Storage&lt;br/&gt;&lt;/font&gt;&lt;/div&gt;" style="verticalAlign=middle;align=center;vsdxID=81;fillColor=none;gradientColor=none;shape=stencil(nZBLDoAgDERP0z3SIyjew0SURgSD+Lu9kMZoXLhwN9O+tukAlrNpJg1SzDH4QW/URgNYgZTkjA4UkwJUgGXng+6DX1zLfmoymdXo17xh5zmRJ6Q42BWCfc2oJfdAr+Yv+AP9Cb7OJ3H/2JG1HNGz/84klThPVCc=);strokeColor=none;spacingTop=-3;spacingBottom=-3;spacingLeft=-3;spacingRight=-3;points=[];labelBackgroundColor=none;rounded=0;html=1;whiteSpace=wrap;" vertex="1" parent="9SlJUzElj-oROItGfegS-48">
          <mxGeometry y="80" width="114" height="20" as="geometry" />
        </mxCell>
        <mxCell id="9SlJUzElj-oROItGfegS-60" style="edgeStyle=orthogonalEdgeStyle;rounded=0;orthogonalLoop=1;jettySize=auto;html=1;entryX=0.028;entryY=0.503;entryDx=0;entryDy=0;entryPerimeter=0;" edge="1" parent="PHe9VQBaEmlKpY5_7-fe-73" source="PHe9VQBaEmlKpY5_7-fe-23" target="9SlJUzElj-oROItGfegS-57">
          <mxGeometry relative="1" as="geometry" />
        </mxCell>
      </root>
    </mxGraphModel>
  </diagram>
</mxfile>
